<svg id='svg' width="16.000000" height="16.000000" viewBox="0 0 16 16" fill="none" xmlns="http://www.w3.org/2000/svg" xmlns:xlink="http://www.w3.org/1999/xlink">
	<desc>
			Created with Pixso.
	</desc>
	<defs>
		<clipPath id="clip302815_5418">
			<rect id="Checkbox" rx="1.000000" width="15.000000" height="15.000000" transform="translate(0.500000 0.500000)" fill="white" fill-opacity="0"/>
		</clipPath>
	</defs>
	<rect id="Checkbox" rx="1.000000" width="15.000000" height="15.000000" transform="translate(0.500000 0.500000)" fill="#FFFFFF" fill-opacity="0"/>
	<g clip-path="url(#clip302815_5418)">
		<path id="Vector" d="M11.4608 4.48926C11.6252 4.34485 11.8439 4.26501 12.0708 4.2666C12.2977 4.26819 12.5151 4.35107 12.677 4.4978C12.839 4.64453 12.9329 4.84351 12.9388 5.05298C12.9449 5.26233 12.8625 5.4657 12.7092 5.62012L8.0542 10.9939C7.97412 11.0735 7.87756 11.1373 7.77014 11.1818C7.66272 11.2261 7.54675 11.2499 7.4292 11.252C7.31152 11.2539 7.1947 11.234 7.08557 11.1934C6.97644 11.1528 6.87744 11.0923 6.79419 11.0155L3.70715 8.16589C3.62122 8.09204 3.55225 8.00281 3.50452 7.90369C3.45667 7.80469 3.43091 7.69775 3.42883 7.58923C3.42676 7.48083 3.44836 7.37305 3.49243 7.27246C3.53638 7.172 3.60193 7.08057 3.68494 7.00391C3.76807 6.92725 3.86707 6.8667 3.97595 6.82605C4.08496 6.78552 4.20166 6.7655 4.31909 6.76746C4.43665 6.76941 4.55249 6.79309 4.65979 6.83728C4.76721 6.88135 4.86377 6.94507 4.94385 7.02441L7.38684 9.27844L11.4387 4.51306C11.446 4.50476 11.4537 4.49683 11.462 4.48926L11.4608 4.48926Z" fill="#4D5AE5" fill-opacity="1.000000" fill-rule="nonzero"/>
	</g>
	<rect id="Checkbox" rx="1.000000" width="15.000000" height="15.000000" transform="translate(0.500000 0.500000)" stroke="#2E2F42" stroke-opacity="0.400000" stroke-width="1.000000"/>
</svg>
