<svg width="168.000000" height="88.000000" viewBox="0 0 168 88" fill="none" xmlns="http://www.w3.org/2000/svg" xmlns:xlink="http://www.w3.org/1999/xlink">
	<desc>
			Created with Pixso.
	</desc>
	<defs>
		<clipPath id="clip2_971">
			<rect id="Logo" width="104.000000" height="56.000000" transform="translate(32.000000 16.000000)" fill="white" fill-opacity="0"/>
		</clipPath>
	</defs>
	<rect id="Rectangle 9" x="0.500000" y="0.500000" rx="4.000000" width="167.000000" height="87.000000" stroke="#8E8F99" stroke-opacity="1.000000" stroke-width="1.000000"/>
	<g clip-path="url(#clip2_971)">
		<path id="Vector" d="M68.8098 65.2234C68.8259 65.2238 68.8418 65.2269 68.8565 65.2325C68.8712 65.2382 68.8844 65.2463 68.8954 65.2563L69.1162 65.464C68.9448 65.632 68.733 65.7664 68.4951 65.8579C68.2167 65.9578 67.9165 66.006 67.6146 65.9994C67.3309 66.0044 67.049 65.9595 66.7865 65.8673C66.5497 65.7827 66.337 65.6556 66.1627 65.4946C65.9847 65.3276 65.8477 65.132 65.7596 64.9191C65.6631 64.6818 65.6155 64.432 65.6188 64.1808C65.6149 63.928 65.6664 63.6768 65.7707 63.4402C65.8671 63.2258 66.0126 63.0303 66.1985 62.8646C66.387 62.7021 66.6125 62.5746 66.861 62.4895C67.1329 62.3994 67.4224 62.3546 67.714 62.3574C67.9848 62.3518 68.2542 62.3927 68.5062 62.4778C68.7248 62.5588 68.9255 62.6713 69.0997 62.8103L68.9147 63.0321C68.9019 63.0477 68.886 63.0613 68.8678 63.0721C68.8459 63.085 68.8196 63.0908 68.7933 63.0886C68.7646 63.087 68.737 63.0789 68.7132 63.0651L68.6138 63.0061L68.4758 62.9307C68.4163 62.9026 68.3544 62.8782 68.2909 62.8575C68.209 62.8325 68.1251 62.8127 68.0397 62.7986C67.9313 62.7815 67.8214 62.7736 67.7112 62.7749C67.5012 62.7727 67.2929 62.8064 67.0984 62.874C66.9171 62.9366 66.7533 63.0315 66.6181 63.1523C66.4805 63.2809 66.3744 63.4316 66.3062 63.5958C66.2285 63.7836 66.1901 63.9816 66.193 64.1808C66.1897 64.3831 66.228 64.5842 66.3062 64.7753C66.3735 64.938 66.4777 65.0879 66.6126 65.2163C66.739 65.3361 66.8957 65.4297 67.0708 65.4899C67.251 65.5537 67.4444 65.5858 67.6394 65.5842C67.7521 65.5858 67.8647 65.5795 67.9762 65.5654C68.1582 65.5464 68.3328 65.4924 68.4869 65.4073C68.5641 65.3638 68.6371 65.3149 68.705 65.2611C68.7333 65.238 68.7706 65.2246 68.8098 65.2234Z" fill="#8E8F99" fill-opacity="1.000000" fill-rule="nonzero"/>
		<path id="Vector" d="M75.1861 64.1804C75.1896 64.4307 75.139 64.6793 75.037 64.9139C74.9471 65.1267 74.8054 65.3209 74.6213 65.4835C74.4371 65.6461 74.2148 65.7736 73.9688 65.8574C73.4284 66.0336 72.831 66.0336 72.2905 65.8574C72.0462 65.7722 71.8253 65.6445 71.6419 65.4824C71.4579 65.3168 71.3151 65.121 71.2223 64.9069C71.0235 64.4318 71.0235 63.9125 71.2223 63.4375C71.3165 63.2231 71.459 63.0269 71.6419 62.8596C71.8268 62.7025 72.0476 62.5797 72.2905 62.4988C72.8303 62.3195 73.4291 62.3195 73.9688 62.4988C74.2141 62.5839 74.4359 62.7115 74.6202 62.8738C74.802 63.0377 74.9437 63.231 75.037 63.4421C75.1393 63.6783 75.1899 63.9286 75.1861 64.1804ZM74.6064 64.1804C74.6108 63.9802 74.5753 63.7809 74.5016 63.5908C74.4397 63.428 74.3392 63.2778 74.2062 63.1497C74.0768 63.0286 73.9174 62.9335 73.7397 62.8713C73.347 62.7424 72.9124 62.7424 72.5197 62.8713C72.3419 62.9335 72.1826 63.0286 72.0532 63.1497C71.9184 63.277 71.8168 63.4274 71.7551 63.5908C71.6146 63.9747 71.6146 64.3861 71.7551 64.77C71.8174 64.9332 71.9189 65.0835 72.0532 65.2112C72.1827 65.3315 72.3421 65.4258 72.5197 65.4871C72.913 65.6128 73.3463 65.6128 73.7397 65.4871C73.9173 65.4258 74.0767 65.3315 74.2062 65.2112C74.3386 65.0826 74.4391 64.9326 74.5016 64.77C74.5757 64.5801 74.6111 64.3806 74.6064 64.1804Z" fill="#8E8F99" fill-opacity="1.000000" fill-rule="nonzero"/>
		<path id="Vector" d="M79.5365 64.7987L79.5945 64.9308C79.6165 64.8837 79.6359 64.8412 79.658 64.7987C79.679 64.7544 79.7029 64.7111 79.7297 64.6691L81.1403 62.4781C81.1678 62.4404 81.1926 62.4169 81.2202 62.4098C81.2578 62.4 81.297 62.396 81.3362 62.3979L81.7531 62.3979L81.7531 65.9614L81.2589 65.9614L81.2589 63.3413C81.2589 63.3082 81.2589 63.2705 81.2589 63.2305C81.2562 63.1896 81.2562 63.1487 81.2589 63.1078L79.8401 65.3293C79.8221 65.3627 79.7932 65.3907 79.7571 65.4104C79.7208 65.4301 79.6787 65.4404 79.6359 65.4402L79.5558 65.4402C79.5128 65.4407 79.4706 65.4305 79.4343 65.4108C79.3981 65.3911 79.3693 65.3628 79.3516 65.3293L77.8913 63.0936C77.8913 63.1361 77.8913 63.1786 77.8913 63.2209C77.8913 63.2634 77.8913 63.3011 77.8913 63.3342L77.8913 65.9543L77.4138 65.9543L77.4138 62.3979L77.8306 62.3979C77.8698 62.396 77.909 62.4 77.9465 62.4098C77.9807 62.4242 78.0081 62.4484 78.0238 62.4781L79.4647 64.6714C79.493 64.7119 79.517 64.7545 79.5365 64.7987Z" fill="#8E8F99" fill-opacity="1.000000" fill-rule="nonzero"/>
		<path id="Vector" d="M84.8447 64.6217L84.8447 65.9564L84.2926 65.9564L84.2926 62.3978L85.5237 62.3978C85.7561 62.394 85.9878 62.4203 86.2111 62.4756C86.3898 62.5189 86.5554 62.5945 86.6969 62.6973C86.8195 62.7937 86.9141 62.9132 86.9729 63.0464C87.0381 63.1915 87.0699 63.3461 87.0668 63.5015C87.0692 63.6576 87.0344 63.8124 86.9646 63.9567C86.8982 64.0931 86.7963 64.215 86.6665 64.3127C86.5249 64.4198 86.3584 64.5002 86.178 64.5486C85.963 64.6072 85.7383 64.6351 85.5127 64.6311L84.8447 64.6217ZM84.8447 64.2396L85.5127 64.2396C85.6577 64.2412 85.8022 64.2229 85.9406 64.1854C86.0546 64.1526 86.1598 64.1005 86.2496 64.0321C86.3326 63.9668 86.3969 63.8861 86.4374 63.7963C86.4825 63.7012 86.5051 63.5994 86.5037 63.4968C86.51 63.3978 86.4912 63.299 86.4482 63.2069C86.4054 63.1149 86.3395 63.0319 86.2552 62.9639C86.0443 62.8231 85.7794 62.755 85.5127 62.7728L84.8447 62.7728L84.8447 64.2396Z" fill="#8E8F99" fill-opacity="1.000000" fill-rule="nonzero"/>
		<path id="Vector" d="M92.2645 65.9613L91.8284 65.9613C91.7845 65.9626 91.7416 65.951 91.7069 65.9282C91.6755 65.906 91.651 65.8777 91.6351 65.8457L91.2598 64.9849L89.3744 64.9849L88.9852 65.8457C88.9709 65.8772 88.947 65.9048 88.9161 65.9259C88.8811 65.9501 88.837 65.9625 88.792 65.9613L88.3558 65.9613L90.0121 62.3975L90.5862 62.3975L92.2645 65.9613ZM89.5317 64.6381L91.0886 64.6381L90.4316 63.1876C90.3813 63.0785 90.3398 62.9666 90.3074 62.8527L90.2439 63.0389C90.2246 63.0956 90.2025 63.1475 90.1832 63.1899L89.5317 64.6381Z" fill="#8E8F99" fill-opacity="1.000000" fill-rule="nonzero"/>
		<path id="Vector" d="M94.6495 62.4141C94.6825 62.4296 94.7109 62.4513 94.7323 62.4778L97.1477 65.1641C97.1477 65.1216 97.1477 65.0792 97.1477 65.0391C97.1477 64.999 97.1477 64.9589 97.1477 64.9211L97.1477 62.3976L97.6417 62.3976L97.6417 65.9613L97.3657 65.9613C97.3265 65.9623 97.2876 65.955 97.2526 65.9401C97.2184 65.9231 97.1885 65.9006 97.1642 65.874L94.7517 63.1899C94.7544 63.2308 94.7544 63.2719 94.7517 63.3126C94.7517 63.3528 94.7517 63.3881 94.7517 63.4211L94.7517 65.9613L94.2576 65.9613L94.2576 62.3976L94.5502 62.3976C94.5844 62.3967 94.6183 62.4023 94.6495 62.4141Z" fill="#8E8F99" fill-opacity="1.000000" fill-rule="nonzero"/>
		<path id="Vector" d="M101.71 64.5438L101.71 65.9589L101.158 65.9589L101.158 64.5438L99.6318 62.3976L100.126 62.3976C100.168 62.3954 100.211 62.4062 100.245 62.4282C100.275 62.451 100.3 62.4781 100.319 62.5084L101.274 63.8928C101.313 63.9518 101.346 64.0061 101.374 64.058C101.401 64.1099 101.423 64.1593 101.443 64.2089L101.514 64.0555C101.541 63.9995 101.573 63.9452 101.608 63.8928L102.55 62.4989C102.569 62.4711 102.594 62.4457 102.621 62.4235C102.654 62.399 102.697 62.3864 102.74 62.3881L103.24 62.3881L101.71 64.5438Z" fill="#8E8F99" fill-opacity="1.000000" fill-rule="nonzero"/>
		<path id="Vector" d="M79.2632 56.417C79.5033 56.443 79.7462 56.4641 79.9919 56.483C83.7164 55.0594 86.8673 52.7295 89.0505 49.7844C91.2338 46.8392 92.3527 43.4097 92.2672 39.9243L88.1626 36.4172C88.9972 40.1281 88.6068 43.9642 87.035 47.4963C85.4634 51.0283 82.7723 54.1172 79.2632 56.417Z" fill="#8E8F99" fill-opacity="1.000000" fill-rule="nonzero"/>
		<path id="Vector" d="M77.7975 56.2538L77.9079 56.2726C81.6578 53.981 84.5168 50.7808 86.1151 47.0859C87.7135 43.3911 87.9777 39.3716 86.8735 35.5471L81.0271 30.552C83.3918 34.6578 84.3436 39.2529 83.772 43.8027C83.2002 48.3527 81.1284 52.6704 77.7975 56.2538Z" fill="#8E8F99" fill-opacity="1.000000" fill-rule="nonzero"/>
		<path id="Vector" d="M97.6251 44.0425C96.6318 47.8721 94.2195 51.3259 90.7463 53.8912C89.7319 54.6445 88.6378 55.3157 87.478 55.8959C90.3062 55.1857 92.9058 53.9299 95.076 52.2257C97.2465 50.5214 98.9298 48.4139 99.9962 46.066L97.6251 44.0425Z" fill="#8E8F99" fill-opacity="1.000000" fill-rule="nonzero"/>
		<path id="Vector" d="M96.6948 43.4784L93.319 40.594C93.2544 43.8826 92.1602 47.0963 90.15 49.9012C88.1399 52.7062 85.2871 55 81.8883 56.5442L81.9049 56.5442C82.6622 56.5439 83.4191 56.5054 84.1711 56.4286C87.3475 55.3209 90.1534 53.5586 92.3387 51.299C94.524 49.0392 96.0205 46.3524 96.6948 43.4784Z" fill="#8E8F99" fill-opacity="1.000000" fill-rule="nonzero"/>
		<path id="Vector" d="M78.2861 28.4457L74.2587 25C70.6584 26.1887 67.562 28.2783 65.3748 30.9955C63.1874 33.7126 62.0112 36.9308 62 40.2285L62 40.2285C62.0135 43.8724 63.449 47.4084 66.0793 50.277C68.7096 53.1454 72.3845 55.1824 76.5222 56.0656C80.2161 52.2205 82.3787 47.4694 82.6958 42.5023C83.0131 37.5353 81.4683 32.6113 78.2861 28.4457Z" fill="#8E8F99" fill-opacity="1.000000" fill-rule="nonzero"/>
		<path id="Vector" d="M106 42.9476C105.985 38.6244 103.969 34.4817 100.391 31.4246C96.8127 28.3674 91.964 26.6445 86.9039 26.6321C84.5657 26.63 82.2473 26.9987 80.0665 27.7194L104.725 48.7871C105.569 46.9248 106.001 44.9448 106 42.9476Z" fill="#8E8F99" fill-opacity="1.000000" fill-rule="nonzero"/>
	</g>
</svg>
