<svg width="168.000000" height="88.000000" viewBox="0 0 168 88" fill="none" xmlns="http://www.w3.org/2000/svg" xmlns:xlink="http://www.w3.org/1999/xlink">
	<desc>
			Created with Pixso.
	</desc>
	<defs>
		<clipPath id="clip2_790">
			<rect id="Logo" width="104.000000" height="56.000000" transform="translate(32.000000 16.000000)" fill="white" fill-opacity="0"/>
		</clipPath>
	</defs>
	<rect id="Rectangle 9" x="0.500000" y="0.500000" rx="4.000000" width="167.000000" height="87.000000" stroke="#8E8F99" stroke-opacity="1.000000" stroke-width="1.000000"/>
	<g clip-path="url(#clip2_790)">
		<path id="Vector" d="M85.5293 43.4431C85.0853 42.8523 84.8729 42.1541 84.9233 41.4512L84.9233 38.5631C84.9233 37.6777 85.1241 37.005 85.5259 36.5447C85.9277 36.0844 86.6177 35.8552 87.5961 35.8572C88.5153 35.8572 89.1678 36.0531 89.5537 36.4448C89.9746 36.9446 90.1794 37.5558 90.1326 38.1724L90.1326 38.8511L88.488 38.8511L88.488 38.1636C88.4939 37.9385 88.4779 37.7135 88.4404 37.4907C88.4167 37.3384 88.334 37.1975 88.2054 37.0912C88.0366 36.9764 87.8239 36.9209 87.6096 36.9354C87.3843 36.9209 87.1609 36.9796 86.9832 37.1C86.84 37.2179 86.7445 37.3723 86.7108 37.5406C86.6636 37.7764 86.642 38.0154 86.6461 38.2546L86.6461 41.7596C86.6201 42.0978 86.6927 42.4362 86.8572 42.7439C86.939 42.848 87.0526 42.9305 87.1854 42.9824C87.3181 43.0343 87.465 43.0535 87.6096 43.0377C87.8203 43.0527 88.0293 42.9957 88.1919 42.879C88.3258 42.7643 88.412 42.6145 88.437 42.453C88.4753 42.2205 88.4924 41.9857 88.488 41.7509L88.488 41.0399L90.1326 41.0399L90.1326 41.6892C90.1787 42.3318 89.9789 42.9697 89.564 43.5049C89.186 43.9338 88.5425 44.1483 87.5961 44.1483C86.6495 44.1483 85.9344 43.9192 85.5293 43.4431Z" fill="#8E8F99" fill-opacity="1.000000" fill-rule="nonzero"/>
		<path id="Vector" d="M92.3763 43.4725C91.9609 43.0231 91.7533 42.3678 91.7533 41.5011L91.7533 38.4633C91.7533 37.6053 91.9609 36.9561 92.3763 36.5153C92.7917 36.0746 93.4862 35.8552 94.46 35.8572C95.4269 35.8572 96.118 36.0765 96.5334 36.5153C96.9489 36.9561 97.1599 37.6053 97.1599 38.4633L97.1599 41.5011C97.1599 42.359 96.9489 43.0172 96.5266 43.4696C96.1045 43.9221 95.4167 44.1483 94.46 44.1483C93.5033 44.1483 92.7952 43.9192 92.3763 43.4725ZM95.2261 42.7439C95.3748 42.4623 95.4425 42.1539 95.4235 41.8448L95.4235 38.1254C95.4426 37.8223 95.376 37.5198 95.2295 37.2439C95.146 37.1376 95.0297 37.0537 94.8936 37.0017C94.7576 36.9498 94.6073 36.9319 94.46 36.9502C94.3123 36.9324 94.1617 36.9504 94.0253 37.0023C93.8887 37.0542 93.7716 37.1379 93.6871 37.2439C93.5374 37.519 93.4695 37.8219 93.4896 38.1254L93.4896 41.8625C93.469 42.1716 93.5367 42.4803 93.6871 42.7616C93.783 42.8563 93.9012 42.9323 94.0341 42.9844C94.1667 43.0364 94.3108 43.0634 94.4565 43.0634C94.6024 43.0634 94.7465 43.0364 94.8792 42.9844C95.012 42.9323 95.1301 42.8563 95.2261 42.7616L95.2261 42.7439Z" fill="#8E8F99" fill-opacity="1.000000" fill-rule="nonzero"/>
		<path id="Vector" d="M99.1378 35.946L100.908 35.946L102.24 41.5511L103.601 35.946L105.324 35.946L105.498 44.0365L104.224 44.0365L104.088 38.4137L102.774 44.0365L101.753 44.0365L100.391 38.3932L100.265 44.0365L98.9778 44.0365L99.1378 35.946Z" fill="#8E8F99" fill-opacity="1.000000" fill-rule="nonzero"/>
		<path id="Vector" d="M107.483 35.946L110.241 35.946C111.829 35.946 112.624 36.7118 112.624 38.2433C112.624 39.7102 111.787 40.4426 110.115 40.4407L109.175 40.4407L109.175 44.0365L107.473 44.0365L107.483 35.946ZM109.839 39.4037C110.007 39.4221 110.178 39.4088 110.34 39.3646C110.501 39.3206 110.65 39.2467 110.775 39.1481C110.97 38.8749 111.057 38.554 111.02 38.2345C111.029 37.9877 111.002 37.741 110.939 37.5001C110.914 37.4197 110.872 37.3442 110.813 37.2781C110.755 37.212 110.682 37.1566 110.598 37.1152C110.362 37.0175 110.101 36.9729 109.839 36.986L109.178 36.986L109.178 39.4037L109.839 39.4037Z" fill="#8E8F99" fill-opacity="1.000000" fill-rule="nonzero"/>
		<path id="Vector" d="M115.079 35.946L116.907 35.946L118.783 44.0365L117.196 44.0365L116.825 42.171L115.194 42.171L114.813 44.0365L113.203 44.0365L115.079 35.946ZM116.641 41.2339L116.005 37.8379L115.368 41.2339L116.641 41.2339Z" fill="#8E8F99" fill-opacity="1.000000" fill-rule="nonzero"/>
		<path id="Vector" d="M120.298 35.946L121.49 35.946L123.771 40.5612L123.771 35.946L125.184 35.946L125.184 44.0365L124.05 44.0365L121.755 39.2186L121.755 44.0365L120.295 44.0365L120.298 35.946Z" fill="#8E8F99" fill-opacity="1.000000" fill-rule="nonzero"/>
		<path id="Vector" d="M128.493 40.9517L126.597 35.9573L128.194 35.9573L129.351 39.1654L130.437 35.9573L132 35.9573L130.127 40.9517L130.127 44.0364L128.493 44.0364L128.493 40.9517Z" fill="#8E8F99" fill-opacity="1.000000" fill-rule="nonzero"/>
		<path id="Vector" d="M88.158 47.5735L88.158 47.9966L86.7688 47.9966L86.7688 51.2841L86.1865 51.2841L86.1865 47.9966L84.7906 47.9966L84.7906 47.5735L88.158 47.5735Z" fill="#8E8F99" fill-opacity="1.000000" fill-rule="nonzero"/>
		<path id="Vector" d="M92.5123 51.2843L92.0629 51.2843C92.0172 51.2867 91.9723 51.2742 91.9369 51.249C91.903 51.2275 91.877 51.1979 91.8621 51.1638L91.4603 50.2826L89.5332 50.2826L89.1315 51.1638C89.12 51.2007 89.0991 51.2349 89.0702 51.2638C89.0345 51.2883 88.9897 51.3009 88.9442 51.2991L88.4948 51.2991L90.1971 47.5886L90.7896 47.5886L92.5123 51.2843ZM89.6932 49.9065L91.3003 49.9065L90.6193 48.3965C90.5691 48.2823 90.527 48.1655 90.4933 48.0469C90.4695 48.1174 90.4491 48.1849 90.4286 48.2438L90.3673 48.3994L89.6932 49.9065Z" fill="#8E8F99" fill-opacity="1.000000" fill-rule="nonzero"/>
		<path id="Vector" d="M95.4471 50.92C95.5538 50.9248 95.6606 50.9248 95.7672 50.92C95.8593 50.9119 95.9504 50.8971 96.0397 50.876C96.123 50.8583 96.205 50.8357 96.2848 50.8083C96.3596 50.782 96.4346 50.7496 96.5128 50.7173L96.5128 49.8828L95.8319 49.8828C95.8151 49.8837 95.7982 49.8815 95.7825 49.8765C95.7666 49.8715 95.7522 49.8635 95.74 49.8535C95.7289 49.8451 95.72 49.8347 95.7141 49.823C95.7081 49.8114 95.7054 49.7987 95.7059 49.7859L95.7059 49.5009L97.027 49.5009L97.027 50.923C96.9192 50.9895 96.8053 51.0485 96.6865 51.0992C96.5651 51.151 96.4386 51.1932 96.3086 51.2256C96.1693 51.261 96.027 51.2865 95.8831 51.302C95.7179 51.3179 95.552 51.3257 95.3859 51.3256C95.0923 51.3276 94.8009 51.2808 94.528 51.1874C94.2731 51.099 94.0414 50.967 93.847 50.7996C93.6575 50.6304 93.5082 50.4308 93.4078 50.2119C93.3004 49.9661 93.2473 49.705 93.2512 49.4421C93.2476 49.1777 93.2996 48.9149 93.4044 48.6665C93.5023 48.4465 93.6519 48.2465 93.8436 48.0789C94.0378 47.9119 94.2695 47.7809 94.5245 47.694C94.816 47.5992 95.1255 47.5525 95.437 47.5558C95.5955 47.5557 95.7538 47.5665 95.9103 47.5881C96.0486 47.6077 96.1843 47.6392 96.3154 47.6821C96.4344 47.7208 96.5486 47.77 96.6559 47.8291C96.7603 47.8871 96.8593 47.9519 96.952 48.0229L96.7887 48.2522C96.7759 48.2731 96.7568 48.2906 96.7334 48.3031C96.7101 48.3156 96.6833 48.3223 96.6559 48.3228C96.6182 48.3217 96.5817 48.3115 96.5503 48.2933C96.4993 48.2698 96.4448 48.2405 96.3835 48.2052C96.3112 48.166 96.2347 48.1326 96.1554 48.1052C96.0538 48.0702 95.9491 48.0426 95.8422 48.0229C95.6996 48.0004 95.5547 47.9895 95.4098 47.9907C95.1852 47.9885 94.962 48.0234 94.7527 48.0935C94.5632 48.1591 94.3925 48.2594 94.2522 48.3873C94.1111 48.5208 94.0033 48.6777 93.9355 48.8486C93.7834 49.2505 93.7834 49.6837 93.9355 50.0856C94.01 50.2601 94.126 50.4192 94.276 50.5527C94.4156 50.6801 94.5851 50.7803 94.7731 50.8466C94.9895 50.9108 95.219 50.9358 95.4471 50.92Z" fill="#8E8F99" fill-opacity="1.000000" fill-rule="nonzero"/>
		<path id="Vector" d="M100.874 50.861L102.733 50.861L102.733 51.2841L100.306 51.2841L100.306 47.5735L100.888 47.5735L100.874 50.861Z" fill="#8E8F99" fill-opacity="1.000000" fill-rule="nonzero"/>
		<path id="Vector" d="M104.667 51.2841L104.085 51.2841L104.085 47.5735L104.667 47.5735L104.667 51.2841Z" fill="#8E8F99" fill-opacity="1.000000" fill-rule="nonzero"/>
		<path id="Vector" d="M106.833 47.5912C106.867 47.6082 106.897 47.6312 106.921 47.6587L109.41 50.4558C109.406 50.4117 109.406 50.3676 109.41 50.3236C109.41 50.2825 109.41 50.2413 109.41 50.2031L109.41 47.5588L109.917 47.5588L109.917 51.2843L109.624 51.2843C109.581 51.2874 109.537 51.2803 109.498 51.2638C109.463 51.2452 109.432 51.2214 109.406 51.1932L106.921 48.3992C106.921 48.4432 106.921 48.4844 106.921 48.5255C106.921 48.5667 106.921 48.6047 106.921 48.64L106.921 51.2843L106.434 51.2843L106.434 47.5735L106.737 47.5735C106.77 47.5736 106.802 47.5796 106.833 47.5912Z" fill="#8E8F99" fill-opacity="1.000000" fill-rule="nonzero"/>
		<path id="Vector" d="M114.204 47.5735L114.204 47.9818L112.141 47.9818L112.141 49.207L113.812 49.207L113.812 49.6007L112.141 49.6007L112.141 50.8669L114.204 50.8669L114.204 51.2753L111.541 51.2753L111.541 47.5735L114.204 47.5735Z" fill="#8E8F99" fill-opacity="1.000000" fill-rule="nonzero"/>
		<path id="Vector" d="M53.1952 24.6586L79.047 30.9927L79.047 53.1882L53.1952 46.8571L53.1952 24.6586ZM51.5371 22.7666L51.5371 47.9353L80.7018 55.0831L80.7018 29.9174L51.5371 22.7666Z" fill="#8E8F99" fill-opacity="1.000000" fill-rule="nonzero"/>
		<path id="Vector" d="M67.168 66.7666L38 59.6128L38 34.4468L67.168 41.5977L67.168 66.7666Z" fill="#8E8F99" fill-opacity="1.000000" fill-rule="nonzero"/>
		<path id="Vector" d="M52.0205 24.3735L77.5353 30.6282L66.6844 39.9939L41.1664 33.7365L52.0205 24.3735ZM51.537 22.7666L38 34.4474L67.168 41.598L80.7015 29.9172L51.537 22.7666Z" fill="#8E8F99" fill-opacity="1.000000" fill-rule="nonzero"/>
		<path id="Vector" d="M68.8091 65.3507L80.7015 55.0862L68.8091 52.1689L68.8091 65.3507Z" fill="#8E8F99" fill-opacity="1.000000" fill-rule="nonzero"/>
	</g>
</svg>
