<svg width="168.000000" height="88.000000" viewBox="0 0 168 88" fill="none" xmlns="http://www.w3.org/2000/svg" xmlns:xlink="http://www.w3.org/1999/xlink">
	<desc>
			Created with Pixso.
	</desc>
	<defs>
		<clipPath id="clip2_599">
			<rect id="Logo" width="104.000000" height="56.000000" transform="translate(32.000000 16.000000)" fill="white" fill-opacity="0"/>
		</clipPath>
	</defs>
	<rect id="Rectangle 9" x="0.500000" y="0.500000" rx="4.000000" width="167.000000" height="87.000000" stroke="#8E8F99" stroke-opacity="1.000000" stroke-width="1.000000"/>
	<rect id="Logo" width="104.000000" height="56.000000" transform="translate(32.000000 16.000000)" fill="#2196F3" fill-opacity="0"/>
	<g clip-path="url(#clip2_599)">
		<path id="Vector" d="M56.0753 37.5178L56.0782 37.5178C58.4639 37.5178 60.3978 39.2615 60.3978 41.4122L60.3978 41.4148C60.3978 43.5657 58.4639 45.3093 56.0782 45.3093L56.0753 45.3093C53.6897 45.3093 51.7557 43.5657 51.7557 41.4148L51.7557 41.4122C51.7557 39.2615 53.6897 37.5178 56.0753 37.5178Z" fill="#8E8F99" fill-opacity="1.000000" fill-rule="evenodd"/>
		<path id="Vector" d="M87.9614 36.2729C87.9547 33.2855 86.6356 30.4221 84.2928 28.3094C81.9502 26.1968 78.7745 25.0068 75.4611 25L75.4611 25C72.1466 25.0054 68.9696 26.1948 66.6256 28.3076C64.2817 30.4204 62.9618 33.2847 62.9551 36.2729L62.9551 52.7472C62.9551 52.7472 87.9586 50.2365 87.9614 36.2755L87.9614 36.2729Z" fill="#8E8F99" fill-opacity="1.000000" fill-rule="nonzero"/>
		<path id="Vector" d="M43 58.1543C43.006 60.233 43.9243 62.2251 45.5543 63.6952C47.1843 65.1653 49.3934 65.9939 51.699 66C54.004 65.9939 56.2126 65.1656 57.8427 63.696C59.4725 62.2266 60.3912 60.2351 60.3979 58.1569L60.3979 46.6938C60.3979 46.6938 43 48.4421 43 58.1543ZM51.699 60.2081C51.2484 60.2081 50.808 60.0878 50.4333 59.8621C50.0588 59.6364 49.7668 59.3156 49.5944 58.9403C49.422 58.5651 49.3768 58.1521 49.4648 57.7537C49.5527 57.3552 49.7697 56.9893 50.0883 56.702C50.4067 56.4148 50.8127 56.2192 51.2545 56.1399C51.6964 56.0607 52.1544 56.1013 52.5707 56.2568C52.9869 56.4122 53.3428 56.6755 53.593 57.0133C53.8434 57.3511 53.9769 57.7482 53.9769 58.1543C53.978 58.4247 53.9199 58.6926 53.806 58.9426C53.692 59.1927 53.5244 59.42 53.3127 59.6116C53.1011 59.8031 52.8496 59.9551 52.5728 60.0588C52.2958 60.1625 51.9989 60.2158 51.699 60.2158L51.699 60.2081Z" fill="#8E8F99" fill-opacity="1.000000" fill-rule="nonzero"/>
		<path id="FOSTER PETERS" d="M69.2964 59.0374L67.6089 59.0374L67.6089 60.7805L66.73 60.7805L66.73 56.5149L69.5073 56.5149L69.5073 57.2268L67.6089 57.2268L67.6089 58.3284L69.2964 58.3284L69.2964 59.0374ZM73.521 58.7444Q73.521 59.3743 73.2983 59.8489Q73.0757 60.3235 72.6611 60.5813Q72.2466 60.8391 71.7104 60.8391Q71.1802 60.8391 70.7642 60.5842Q70.3481 60.3293 70.1196 59.8562Q69.8911 59.3831 69.8882 58.7678L69.8882 58.5569Q69.8882 57.927 70.1152 57.448Q70.3423 56.969 70.7568 56.7126Q71.1714 56.4563 71.7046 56.4563Q72.2378 56.4563 72.6523 56.7126Q73.0669 56.969 73.2939 57.448Q73.521 57.927 73.521 58.554L73.521 58.7444ZM72.6304 58.551Q72.6304 57.8801 72.3901 57.5315Q72.1499 57.1829 71.7046 57.1829Q71.2622 57.1829 71.022 57.5271Q70.7817 57.8713 70.7788 58.5364L70.7788 58.7444Q70.7788 59.3977 71.019 59.7581Q71.2593 60.1184 71.7104 60.1184Q72.1528 60.1184 72.3901 59.7712Q72.6274 59.4241 72.6304 58.759L72.6304 58.551ZM76.3716 59.6614Q76.3716 59.4124 76.1958 59.2791Q76.02 59.1458 75.563 58.9978Q75.106 58.8499 74.8394 58.7063Q74.1128 58.3137 74.1128 57.6487Q74.1128 57.303 74.3076 57.032Q74.5024 56.761 74.8672 56.6086Q75.2319 56.4563 75.686 56.4563Q76.1431 56.4563 76.5005 56.6218Q76.8579 56.7874 77.0557 57.0891Q77.2534 57.3909 77.2534 57.7747L76.3745 57.7747Q76.3745 57.4817 76.1899 57.3191Q76.0054 57.1565 75.6714 57.1565Q75.3491 57.1565 75.1704 57.2927Q74.9917 57.429 74.9917 57.6516Q74.9917 57.8596 75.2012 58.0002Q75.4106 58.1409 75.8179 58.2639Q76.5679 58.4895 76.9106 58.8235Q77.2534 59.1575 77.2534 59.6555Q77.2534 60.2092 76.8345 60.5242Q76.4155 60.8391 75.7065 60.8391Q75.2144 60.8391 74.8101 60.6589Q74.4058 60.4788 74.1934 60.1653Q73.981 59.8518 73.981 59.4387L74.8628 59.4387Q74.8628 60.1448 75.7065 60.1448Q76.02 60.1448 76.1958 60.0173Q76.3716 59.8899 76.3716 59.6614ZM81.0591 57.2268L79.7524 57.2268L79.7524 60.7805L78.8735 60.7805L78.8735 57.2268L77.5845 57.2268L77.5845 56.5149L81.0591 56.5149L81.0591 57.2268ZM84.1265 58.9319L82.439 58.9319L82.439 60.0745L84.4194 60.0745L84.4194 60.7805L81.5601 60.7805L81.5601 56.5149L84.4136 56.5149L84.4136 57.2268L82.439 57.2268L82.439 58.2434L84.1265 58.2434L84.1265 58.9319ZM86.5142 59.219L85.814 59.219L85.814 60.7805L84.9351 60.7805L84.9351 56.5149L86.52 56.5149Q87.2759 56.5149 87.686 56.8518Q88.0962 57.1887 88.0962 57.804Q88.0962 58.2405 87.9072 58.532Q87.7183 58.8235 87.3345 58.9963L88.2573 60.7395L88.2573 60.7805L87.314 60.7805L86.5142 59.219ZM85.814 58.5071L86.5229 58.5071Q86.854 58.5071 87.0356 58.3386Q87.2173 58.1702 87.2173 57.8743Q87.2173 57.5725 87.0459 57.3997Q86.8745 57.2268 86.52 57.2268L85.814 57.2268L85.814 58.5071ZM91.1372 59.2776L91.1372 60.7805L90.2583 60.7805L90.2583 56.5149L91.9224 56.5149Q92.4028 56.5149 92.7676 56.6907Q93.1323 56.8665 93.3286 57.1902Q93.5249 57.5139 93.5249 57.927Q93.5249 58.554 93.0957 58.9158Q92.6665 59.2776 91.9077 59.2776L91.1372 59.2776ZM91.1372 58.5657L91.9224 58.5657Q92.271 58.5657 92.4541 58.4016Q92.6372 58.2375 92.6372 57.9329Q92.6372 57.6194 92.4526 57.426Q92.2681 57.2327 91.9429 57.2268L91.1372 57.2268L91.1372 58.5657ZM96.6948 58.9319L95.0073 58.9319L95.0073 60.0745L96.9878 60.0745L96.9878 60.7805L94.1284 60.7805L94.1284 56.5149L96.9819 56.5149L96.9819 57.2268L95.0073 57.2268L95.0073 58.2434L96.6948 58.2434L96.6948 58.9319ZM100.773 57.2268L99.4663 57.2268L99.4663 60.7805L98.5874 60.7805L98.5874 57.2268L97.2983 57.2268L97.2983 56.5149L100.773 56.5149L100.773 57.2268ZM103.84 58.9319L102.153 58.9319L102.153 60.0745L104.133 60.0745L104.133 60.7805L101.274 60.7805L101.274 56.5149L104.127 56.5149L104.127 57.2268L102.153 57.2268L102.153 58.2434L103.84 58.2434L103.84 58.9319ZM106.228 59.219L105.528 59.219L105.528 60.7805L104.649 60.7805L104.649 56.5149L106.234 56.5149Q106.99 56.5149 107.4 56.8518Q107.81 57.1887 107.81 57.804Q107.81 58.2405 107.621 58.532Q107.432 58.8235 107.048 58.9963L107.971 60.7395L107.971 60.7805L107.028 60.7805L106.228 59.219ZM105.528 58.5071L106.237 58.5071Q106.568 58.5071 106.75 58.3386Q106.931 58.1702 106.931 57.8743Q106.931 57.5725 106.76 57.3997Q106.588 57.2268 106.234 57.2268L105.528 57.2268L105.528 58.5071ZM110.69 59.6614Q110.69 59.4124 110.514 59.2791Q110.338 59.1458 109.881 58.9978Q109.424 58.8499 109.158 58.7063Q108.431 58.3137 108.431 57.6487Q108.431 57.303 108.626 57.032Q108.821 56.761 109.186 56.6086Q109.55 56.4563 110.004 56.4563Q110.461 56.4563 110.819 56.6218Q111.176 56.7874 111.374 57.0891Q111.572 57.3909 111.572 57.7747L110.693 57.7747Q110.693 57.4817 110.508 57.3191Q110.324 57.1565 109.99 57.1565Q109.667 57.1565 109.489 57.2927Q109.31 57.429 109.31 57.6516Q109.31 57.8596 109.52 58.0002Q109.729 58.1409 110.136 58.2639Q110.886 58.4895 111.229 58.8235Q111.572 59.1575 111.572 59.6555Q111.572 60.2092 111.153 60.5242Q110.734 60.8391 110.025 60.8391Q109.533 60.8391 109.128 60.6589Q108.724 60.4788 108.512 60.1653Q108.299 59.8518 108.299 59.4387L109.181 59.4387Q109.181 60.1448 110.025 60.1448Q110.338 60.1448 110.514 60.0173Q110.69 59.8899 110.69 59.6614Z" fill="#8E8F99" fill-opacity="1.000000" fill-rule="evenodd"/>
	</g>
</svg>
