<svg width="168.000000" height="88.000000" viewBox="0 0 168 88" fill="none" xmlns="http://www.w3.org/2000/svg" xmlns:xlink="http://www.w3.org/1999/xlink">
	<desc>
			Created with Pixso.
	</desc>
	<defs>
		<clipPath id="clip2_686">
			<rect id="Logo " width="104.000000" height="56.000000" transform="translate(32.000000 16.000000)" fill="white" fill-opacity="0"/>
		</clipPath>
	</defs>
	<rect id="Rectangle 9" x="0.500000" y="0.500000" rx="4.000000" width="167.000000" height="87.000000" stroke="#8E8F99" stroke-opacity="1.000000" stroke-width="1.000000"/>
	<g clip-path="url(#clip2_686)">
		<path id="Union" d="M70 23L77.0078 29.6764L64 29.6687L64 62.0608L98 62.0608L98 49.6758L105 56.3447L105 23L70 23ZM97.6924 29.962L97.6924 48.8922L77.8226 29.962L97.6924 29.962ZM91.5231 57.3226L69.3801 57.3226L69.3801 35.5372L70.9453 35.5372L70.9453 55.8475L91.5231 55.8475L91.5231 57.3226ZM80.4821 67.7207C80.4553 67.6866 80.4296 67.6534 80.4048 67.6212C80.3137 67.5007 80.2429 67.3844 80.1924 67.2721Q80.1396 67.1528 80.1237 67.0289Q80.1167 66.9752 80.1167 66.9205C80.1167 66.735 80.155 66.5754 80.2314 66.442C80.3079 66.3085 80.4162 66.2059 80.5562 66.1344Q80.7661 66.0245 81.0469 66.0245C81.2275 66.0245 81.383 66.0612 81.5132 66.1344C81.645 66.2059 81.7459 66.3011 81.8159 66.42C81.8875 66.5388 81.9233 66.6691 81.9233 66.8107C81.9233 66.923 81.903 67.0255 81.8623 67.1183C81.8216 67.2111 81.7654 67.2957 81.6938 67.3722C81.6223 67.4486 81.5392 67.5211 81.4448 67.5895L81.1979 67.7692L81.9019 68.5999C81.925 68.5542 81.946 68.5063 81.9648 68.4562C82.0251 68.2999 82.0552 68.1266 82.0552 67.9362L82.563 67.9362Q82.563 68.1949 82.5117 68.4269C82.4792 68.5814 82.4263 68.7247 82.353 68.8566C82.3233 68.9111 82.2897 68.9635 82.2522 69.0134L82.7729 69.6281L82.0918 69.6281L81.8852 69.385C81.7734 69.4698 81.6518 69.5363 81.5205 69.5841C81.348 69.6459 81.1641 69.6769 80.9688 69.6769C80.7327 69.6769 80.5285 69.6337 80.356 69.5475C80.1834 69.4612 80.05 69.3424 79.9556 69.191Q79.9297 69.1489 79.9087 69.1045Q79.8164 68.9095 79.8164 68.671C79.8164 68.5261 79.8465 68.3992 79.9067 68.2902C79.967 68.1794 80.0491 68.0769 80.1533 67.9825C80.2495 67.8953 80.3591 67.808 80.4821 67.7207ZM80.7738 68.0779L80.7002 68.1315C80.614 68.2014 80.5496 68.2689 80.5073 68.3341Q80.4463 68.4293 80.4268 68.5099C80.4138 68.5636 80.4072 68.6107 80.4072 68.6515C80.4072 68.7556 80.4292 68.85 80.4731 68.9347C80.5187 69.0193 80.5847 69.0868 80.6709 69.1373C80.7588 69.1862 80.8654 69.2106 80.9907 69.2106C81.1258 69.2106 81.2568 69.1804 81.3838 69.1202C81.4474 69.0892 81.5078 69.0519 81.5648 69.0082L80.7738 68.0779ZM80.9144 67.4286L81.1323 67.2819C81.2349 67.2135 81.3081 67.1467 81.3521 67.0817Q81.418 66.9816 81.418 66.8326C81.418 66.7479 81.3854 66.6698 81.3203 66.5983C81.2552 66.5266 81.1633 66.4908 81.0444 66.4908C80.9614 66.4908 80.8914 66.5104 80.8345 66.5494C80.7775 66.5868 80.7344 66.6373 80.7051 66.7008C80.6774 66.7626 80.6636 66.8318 80.6636 66.9083C80.6636 66.9816 80.6823 67.0573 80.7197 67.1354Q80.7759 67.2501 80.8735 67.3771C80.8868 67.3939 80.9004 67.4111 80.9144 67.4286ZM87.1333 68.4708L86.5229 68.4708C86.5051 68.6254 86.4676 68.7565 86.4106 68.8639C86.3553 68.9696 86.2731 69.0502 86.1641 69.1056C86.0566 69.1609 85.9158 69.1886 85.7417 69.1886C85.5984 69.1886 85.4756 69.16 85.373 69.1031C85.2705 69.0461 85.1859 68.9656 85.1191 68.8615Q85.0215 68.7052 84.9727 68.4879C84.9417 68.3414 84.9263 68.1786 84.9263 67.9996L84.9263 67.6993C84.9263 67.5105 84.9434 67.3429 84.9775 67.1964C85.0134 67.0482 85.0662 66.9237 85.1362 66.8229C85.2062 66.7219 85.2933 66.6454 85.3975 66.5934C85.5016 66.5413 85.6237 66.5153 85.7637 66.5153C85.9346 66.5153 86.0729 66.5446 86.1787 66.6031C86.2845 66.66 86.3643 66.743 86.418 66.8522C86.4733 66.9612 86.5091 67.0922 86.5254 67.2452L87.1357 67.2452C87.1113 67.0076 87.0446 66.7968 86.9355 66.6129Q86.8758 66.5105 86.7979 66.4247Q86.6657 66.2791 86.4814 66.1808C86.2861 66.0765 86.0469 66.0245 85.7637 66.0245C85.5407 66.0245 85.3397 66.0636 85.1606 66.1417C84.9832 66.2198 84.8311 66.3329 84.7041 66.4811C84.5771 66.6276 84.4795 66.8041 84.4111 67.0109C84.3444 67.2175 84.311 67.4486 84.311 67.7042L84.311 67.9996C84.311 68.2551 84.3436 68.4862 84.4087 68.693C84.4754 68.8997 84.5715 69.0763 84.6968 69.2228C84.8221 69.3676 84.9727 69.4799 85.1484 69.5597Q85.4121 69.6769 85.7417 69.6769C86.0281 69.6769 86.2715 69.6248 86.4717 69.5206C86.6719 69.4164 86.8273 69.274 86.938 69.0934C87.0486 68.911 87.1138 68.7035 87.1333 68.4708ZM90.5244 67.9484L90.5244 67.7531C90.5244 67.4845 90.4886 67.2444 90.417 67.0328C90.347 66.8196 90.2469 66.6381 90.1167 66.4884C89.9865 66.337 89.8311 66.2223 89.6504 66.1442C89.4697 66.0643 89.2695 66.0245 89.0498 66.0245C88.8317 66.0245 88.6323 66.0643 88.4517 66.1442C88.2726 66.2223 88.1172 66.337 87.9854 66.4884C87.8552 66.6381 87.7542 66.8196 87.6826 67.0328C87.611 67.2444 87.5752 67.4845 87.5752 67.7531L87.5752 67.9484C87.5752 68.2169 87.611 68.4578 87.6826 68.671C87.7559 68.8842 87.8584 69.0657 87.9902 69.2155C88.1221 69.3651 88.2775 69.4799 88.4565 69.5597C88.6372 69.6378 88.8366 69.6769 89.0547 69.6769Q89.3843 69.6769 89.6553 69.5597C89.8359 69.4799 89.9905 69.3651 90.1191 69.2155C90.2493 69.0657 90.3494 68.8842 90.4194 68.671C90.4894 68.4578 90.5244 68.2169 90.5244 67.9484ZM73.7959 67.7701L72.9707 66.0734L72.2896 66.0734L73.4858 68.3195L73.4858 69.6281L74.1035 69.6281L74.1035 68.3195L75.2998 66.0734L74.6211 66.0734L73.7959 67.7701ZM76.8379 66.0734L76.9844 66.0734L78.3271 69.6281L77.6826 69.6281L77.395 68.7955L76.0189 68.7955L75.7319 69.6281L75.0898 69.6281L76.4277 66.0734L76.8379 66.0734ZM76.1863 68.3097L77.2272 68.3097L76.7062 66.8016L76.1863 68.3097ZM89.9116 67.7482L89.9116 67.9484Q89.9116 68.2462 89.853 68.4757C89.8156 68.6287 89.7603 68.7581 89.687 68.8639C89.6138 68.968 89.5242 69.047 89.4185 69.1007C89.3127 69.1527 89.1914 69.1788 89.0547 69.1788C88.9196 69.1788 88.7991 69.1527 88.6934 69.1007C88.5876 69.047 88.4964 68.968 88.4199 68.8639C88.345 68.7581 88.2881 68.6287 88.249 68.4757Q88.1904 68.2462 88.1904 67.9484L88.1904 67.7482C88.1904 67.5496 88.21 67.3746 88.249 67.2233C88.2881 67.0702 88.3442 66.9425 88.4175 66.84Q88.5127 66.7075 88.6412 66.6311Q88.6643 66.6174 88.6885 66.6056C88.7943 66.5519 88.9147 66.525 89.0498 66.525C89.1849 66.525 89.3062 66.5519 89.4136 66.6056Q89.4534 66.6249 89.4901 66.6489Q89.6019 66.7223 89.6846 66.84C89.7595 66.9425 89.8156 67.0702 89.853 67.2233C89.8921 67.3746 89.9116 67.5496 89.9116 67.7482Z" clip-rule="evenodd" fill="#8E8F99" fill-opacity="1.000000" fill-rule="evenodd"/>
	</g>
</svg>
