<svg width="168.000000" height="88.000000" viewBox="0 0 168 88" fill="none" xmlns="http://www.w3.org/2000/svg" xmlns:xlink="http://www.w3.org/1999/xlink">
	<desc>
			Created with Pixso.
	</desc>
	<defs>
		<clipPath id="clip2_646">
			<rect id="Logo" width="104.000000" height="56.000000" transform="translate(32.000000 16.000000)" fill="white" fill-opacity="0"/>
		</clipPath>
	</defs>
	<rect id="Rectangle 9" x="0.500000" y="0.500000" rx="4.000000" width="167.000000" height="87.000000" fill="#FFFFFF" fill-opacity="0"/>
	<rect id="Rectangle 9" x="0.500000" y="0.500000" rx="4.000000" width="167.000000" height="87.000000" stroke="#8E8F99" stroke-opacity="1.000000" stroke-width="1.000000"/>
	<g clip-path="url(#clip2_646)">
		<path id="Vector" d="M58.7919 60.373C59.0374 60.6465 59.1681 60.9891 59.1613 61.3407C59.1738 61.5699 59.1289 61.799 59.0298 62.0105C58.9307 62.222 58.78 62.4109 58.5889 62.563C58.1121 62.8872 57.5212 63.0457 56.925 63.0093L54 63.0093L54 56.877L56.8651 56.877C57.4307 56.843 57.9918 56.9871 58.4525 57.2843C58.6375 57.4238 58.7841 57.6 58.8805 57.7991C58.9769 57.9983 59.0206 58.2148 59.0082 58.4318C59.025 58.77 58.907 59.1025 58.6754 59.3694C58.4531 59.613 58.1459 59.782 57.8036 59.8488C58.1917 59.9125 58.5419 60.0983 58.7919 60.373ZM55.3611 59.4473L56.5856 59.4473C56.8639 59.4658 57.1404 59.3936 57.3643 59.2437C57.4563 59.1686 57.5278 59.0756 57.5734 58.9717C57.619 58.8677 57.6373 58.7557 57.6272 58.6444C57.6359 58.5336 57.6171 58.4222 57.5721 58.3186C57.5272 58.215 57.4574 58.1217 57.3677 58.0453C57.137 57.8911 56.8519 57.8176 56.5657 57.8386L55.3611 57.8386L55.3611 59.4473ZM57.4841 61.7991C57.5824 61.7223 57.6597 61.6261 57.7098 61.5179C57.7601 61.4099 57.7819 61.2928 57.7736 61.1759C57.7811 61.0576 57.7583 60.9393 57.7069 60.8303C57.6556 60.7212 57.577 60.6241 57.4774 60.5468C57.2379 60.3868 56.9432 60.3083 56.6455 60.3251L55.3611 60.3251L55.3611 62.0117L56.6621 62.0117C56.9551 62.027 57.2449 61.9519 57.4841 61.7991Z" fill="#8E8F99" fill-opacity="1.000000" fill-rule="nonzero"/>
		<path id="Vector" d="M64.6487 63.0094L63.0547 60.6127L62.4557 60.6127L62.4557 63.0094L61.0847 63.0094L61.0847 56.877L63.6803 56.877C64.3346 56.8358 64.9814 57.0225 65.4873 57.3982C65.8501 57.7311 66.069 58.1696 66.1044 58.6349C66.1398 59.1001 65.9894 59.5614 65.6803 59.9357C65.3601 60.266 64.9226 60.4861 64.4424 60.5588L66.1395 63.0094L64.6487 63.0094ZM62.4557 59.7769L63.5771 59.7769C64.3558 59.7769 64.7452 59.4673 64.7452 58.8481C64.7532 58.7218 64.7318 58.5952 64.6825 58.4766C64.6333 58.3579 64.5571 58.2499 64.459 58.1592C64.2129 57.9749 63.896 57.8855 63.5771 57.9105L62.4424 57.9105L62.4557 59.7769Z" fill="#8E8F99" fill-opacity="1.000000" fill-rule="nonzero"/>
		<path id="Vector" d="M72.1426 61.775L69.4105 61.775L68.9281 63.0093L67.4905 63.0093L69.9995 56.9458L71.5536 56.9458L74.0527 63.0093L72.6151 63.0093L72.1426 61.775ZM71.7766 60.8463L70.7782 58.2579L69.7799 60.8463L71.7766 60.8463Z" fill="#8E8F99" fill-opacity="1.000000" fill-rule="nonzero"/>
		<path id="Vector" d="M81.5234 63.0094L80.1624 63.0094L77.1108 58.8392L77.1108 63.0094L75.7532 63.0094L75.7532 56.877L77.1108 56.877L80.1624 61.071L80.1624 56.877L81.5234 56.877L81.5234 63.0094Z" fill="#8E8F99" fill-opacity="1.000000" fill-rule="nonzero"/>
		<path id="Vector" d="M89.2903 61.5415C89.0089 62.0044 88.5801 62.3811 88.059 62.6229C87.4666 62.8923 86.8091 63.0251 86.1456 63.0094L83.723 63.0094L83.723 56.877L86.1456 56.877C86.808 56.8615 87.4646 56.991 88.059 57.2545C88.58 57.4908 89.0093 57.8636 89.2903 58.324C89.5704 58.8228 89.7164 59.3738 89.7164 59.9327C89.7164 60.4916 89.5704 61.0427 89.2903 61.5415ZM87.7329 61.3947C88.1213 60.9873 88.335 60.4681 88.335 59.9312C88.335 59.3943 88.1213 58.8751 87.7329 58.4678C87.2634 58.0988 86.6511 57.9115 86.0292 57.9465L85.0841 57.9465L85.0841 61.9159L86.0292 61.9159C86.6511 61.9509 87.2634 61.7637 87.7329 61.3947Z" fill="#8E8F99" fill-opacity="1.000000" fill-rule="nonzero"/>
		<path id="Vector" d="M72.9945 22.7666C72.9945 22.7666 90.5614 28.7372 90.1887 37.3772L90.1887 51.9907C90.1887 51.9907 72.6351 46.0171 73.0012 37.3772L72.9945 22.7666Z" fill="#8E8F99" fill-opacity="1.000000" fill-rule="nonzero"/>
		<path id="Vector" d="M105.839 48.5695C109.156 46.5139 112.994 45.2407 117 44.8666L117 40.292C112.384 41.8936 108.469 44.7975 105.839 48.5695Z" fill="#8E8F99" fill-opacity="1.000000" fill-rule="nonzero"/>
		<path id="Vector" d="M103.846 49.9478C106.561 45.0253 111.269 41.2268 117 39.3336L117 26.1521C117 26.1521 91.9823 34.6572 92.5115 46.9609L92.5115 67.7668C92.5115 67.7668 93.6262 67.3864 95.3799 66.6733C95.3799 66.0083 95.3799 65.3372 95.4598 64.6631C95.9775 58.9512 98.9939 53.6581 103.846 49.9478Z" fill="#8E8F99" fill-opacity="1.000000" fill-rule="nonzero"/>
		<path id="Vector" d="M101.466 57.6768C101.598 56.2339 101.891 54.8065 102.342 53.4167C99.3206 56.621 97.4911 60.597 97.1104 64.7858C97.0737 65.1813 97.0538 65.5767 97.0438 65.9841C98.4647 65.37 100.119 64.603 101.856 63.7013C101.412 61.7196 101.281 59.6914 101.466 57.6768Z" fill="#8E8F99" fill-opacity="1.000000" fill-rule="nonzero"/>
		<path id="Vector" d="M102.461 57.7518C102.295 59.5746 102.399 61.4092 102.771 63.2073C109.606 59.5254 117.286 53.8363 116.99 46.9609L116.99 46.3618C112.107 46.8538 107.538 48.7756 103.985 51.8322C103.154 53.7263 102.64 55.7214 102.461 57.7518Z" fill="#8E8F99" fill-opacity="1.000000" fill-rule="nonzero"/>
	</g>
</svg>
