<svg width="168.000000" height="88.000000" viewBox="0 0 168 88" fill="none" xmlns="http://www.w3.org/2000/svg" xmlns:xlink="http://www.w3.org/1999/xlink">
	<desc>
			Created with Pixso.
	</desc>
	<defs>
		<clipPath id="clip2_864">
			<rect id="Logo " width="104.000000" height="56.000000" transform="translate(32.000000 16.000000)" fill="white" fill-opacity="0"/>
		</clipPath>
	</defs>
	<rect id="Rectangle 9" x="0.500000" y="0.500000" rx="4.000000" width="167.000000" height="87.000000" stroke="#8E8F99" stroke-opacity="1.000000" stroke-width="1.000000"/>
	<g clip-path="url(#clip2_864)">
		<path id="Union" d="M81.9771 21.9346L82.1136 21.9346C82.3666 21.9346 82.6398 21.96 82.9105 21.9828C84.1031 22.0669 85.2874 22.2455 86.4521 22.5168L86.4521 19.6536C85.2529 19.3527 84.0297 19.1578 82.7966 19.0712C82.3287 19.0356 81.8303 19.0127 81.3193 19L80.8918 19C78.4169 19.0093 75.9527 19.327 73.5555 19.9459C70.8253 20.6268 68.2047 21.6927 65.7716 23.1119L65.7716 51.5085C68.1143 50.2357 70.6072 49.2643 73.1913 48.6173C75.2317 48.0967 77.3175 47.7765 79.4195 47.6611L79.5029 47.6611C79.8546 47.6433 80.2062 47.6332 80.568 47.6306L80.568 44.7216C77.8367 44.7567 75.1193 45.1178 72.4728 45.7972C71.4938 46.0515 70.5477 46.3262 69.6598 46.6312L68.6479 46.9746L68.6479 24.8335L69.0805 24.6249C72.3817 23.0596 75.9522 22.1487 79.5966 21.9421C79.6269 21.9399 79.6573 21.9399 79.6876 21.9421C80.0898 21.9218 80.4946 21.9116 80.8918 21.9116L81.3471 21.9116C81.5571 21.9167 81.767 21.9218 81.9771 21.9346ZM87.1528 24.8613C87.7877 24.9097 88.4454 24.9326 89.1108 24.9326C91.7125 24.9231 94.3032 24.5908 96.8239 23.9434C99.4068 23.2939 101.899 22.3218 104.241 21.0496L104.241 48.9402C101.807 50.3585 99.1853 51.4243 96.4546 52.1061C94.0571 52.7227 91.5931 53.0396 89.1183 53.0496C87.2433 53.0647 85.3737 52.8442 83.553 52.3934L83.553 24.3223C83.983 24.4215 84.4257 24.5131 84.876 24.5892C85.6147 24.7139 86.3939 24.8054 87.1528 24.8613ZM101.347 25.0775L100.335 25.4183C99.4042 25.7311 98.4657 26.0107 97.5221 26.26C94.7749 26.9659 91.9514 27.3281 89.1158 27.3381C88.4556 27.3381 87.8484 27.3204 87.2615 27.2822L86.4546 27.2289L86.4546 50.0057L87.1477 50.0668C87.7903 50.1227 88.4531 50.1506 89.1209 50.1506C91.3544 50.1411 93.5781 49.8533 95.7412 49.2937C97.5223 48.8469 99.2552 48.2242 100.914 47.4348L101.347 47.2263L101.347 25.0775Z" clip-rule="evenodd" fill="#8E8F99" fill-opacity="1.000000" fill-rule="evenodd"/>
		<path id="Vector" d="M67.7371 61.2125C67.5917 61.0616 67.4163 60.9431 67.2224 60.8647C67.0284 60.7864 66.8203 60.7498 66.6114 60.7573C66.3888 60.7544 66.1678 60.7959 65.9612 60.8794C65.7719 60.9548 65.5998 61.0681 65.4553 61.2125C65.3124 61.3573 65.2013 61.5305 65.129 61.7211C65.0497 61.9208 65.0101 62.1342 65.0126 62.3492L65.0126 66.1432C65.0036 66.4105 65.0546 66.6765 65.1619 66.9214C65.2514 67.1157 65.3807 67.2891 65.5413 67.4299C65.6929 67.5576 65.871 67.6497 66.0624 67.6995C66.2469 67.7513 66.4376 67.7778 66.6291 67.7783C66.8404 67.7804 67.0495 67.7352 67.2413 67.6461C67.431 67.5631 67.6028 67.444 67.7473 67.2952C67.8881 67.1477 68.0005 66.9753 68.0787 66.7866C68.1597 66.5952 68.201 66.3893 68.2001 66.1814L68.2001 65.7567L67.2084 65.7567L67.2084 66.0948C67.2114 66.2103 67.1916 66.3253 67.1502 66.4331C67.1179 66.5139 67.0688 66.5867 67.006 66.6467C66.9446 66.6963 66.8741 66.7335 66.7986 66.7561C66.7316 66.7783 66.6617 66.7904 66.5912 66.7916C66.5026 66.802 66.413 66.7886 66.3312 66.7528C66.2495 66.7172 66.1786 66.6603 66.1257 66.5883C66.0322 66.4358 65.9864 66.2585 65.9941 66.0796L65.9941 62.5425C65.988 62.3463 66.0297 62.1516 66.1156 61.9753C66.1671 61.8953 66.2399 61.8314 66.3258 61.7909C66.4117 61.7505 66.5071 61.7351 66.6013 61.7465C66.6868 61.7435 66.7717 61.7614 66.8488 61.7986C66.9259 61.8357 66.9929 61.8912 67.044 61.9601C67.155 62.1058 67.213 62.2853 67.2084 62.4688L67.2084 62.7968L68.1899 62.7968L68.1899 62.4103C68.192 62.1832 68.1508 61.958 68.0685 61.7465C67.9952 61.5477 67.8825 61.3661 67.7371 61.2125Z" fill="#8E8F99" fill-opacity="1.000000" fill-rule="nonzero"/>
		<path id="Vector" d="M73.6289 61.1689C73.3127 60.902 72.9136 60.7545 72.5007 60.752C72.2987 60.7528 72.0984 60.7889 71.9087 60.8588C71.7161 60.9277 71.5384 61.0331 71.3851 61.1689C71.2208 61.3167 71.0897 61.4978 71.0005 61.7004C70.9006 61.9323 70.8514 62.1829 70.8563 62.4353L70.8563 66.0742C70.8495 66.3302 70.8987 66.5846 71.0005 66.8193C71.0903 67.015 71.2215 67.1886 71.3851 67.3279C71.5367 67.4688 71.7147 67.5776 71.9087 67.6483C72.0984 67.7181 72.2987 67.7543 72.5007 67.7551C72.7027 67.7548 72.9031 67.7186 73.0926 67.6483C73.29 67.5767 73.4719 67.4679 73.6289 67.3279C73.7871 67.186 73.9146 67.0129 74.0033 66.8193C74.1051 66.5846 74.1544 66.3302 74.1475 66.0742L74.1475 62.4353C74.1524 62.1829 74.1032 61.9323 74.0033 61.7004C73.915 61.5 73.7878 61.3192 73.6289 61.1689ZM73.166 66.0742C73.1743 66.1713 73.1609 66.2689 73.1268 66.36C73.0927 66.451 73.0386 66.5333 72.9687 66.6007C72.8377 66.7104 72.6725 66.7706 72.502 66.7706C72.3314 66.7706 72.1662 66.7104 72.0352 66.6007C71.9652 66.5333 71.9112 66.451 71.8771 66.36C71.8429 66.2689 71.8295 66.1713 71.8379 66.0742L71.8379 62.4353C71.8295 62.3384 71.8429 62.2407 71.8771 62.1497C71.9112 62.0586 71.9652 61.9763 72.0352 61.9089C72.1662 61.7991 72.3314 61.739 72.502 61.739C72.6725 61.739 72.8377 61.7991 72.9687 61.9089C73.0386 61.9763 73.0927 62.0586 73.1268 62.1497C73.1609 62.2407 73.1743 62.3384 73.166 62.4353L73.166 66.0742Z" fill="#8E8F99" fill-opacity="1.000000" fill-rule="nonzero"/>
		<path id="Vector" d="M81.3673 67.6993L81.3673 60.8105L80.4136 60.8105L79.1614 64.457L79.1437 64.457L77.8813 60.8105L76.9377 60.8105L76.9377 67.6993L77.9218 67.6993L77.9218 63.5085L77.9395 63.5085L78.9033 66.4711L79.3941 66.4711L80.3655 63.5085L80.3832 63.5085L80.3832 67.6993L81.3673 67.6993Z" fill="#8E8F99" fill-opacity="1.000000" fill-rule="nonzero"/>
		<path id="Vector" d="M86.9581 61.2936C86.8065 61.1235 86.6152 60.9941 86.4015 60.9172C86.1712 60.8423 85.9302 60.8062 85.6881 60.8104L84.226 60.8104L84.226 67.6991L85.2075 67.6991L85.2075 65.0088L85.7134 65.0088C86.0197 65.0227 86.3244 64.9579 86.5988 64.8206C86.822 64.6967 87.0081 64.5149 87.1377 64.2942C87.2512 64.111 87.3277 63.907 87.3628 63.6941C87.4014 63.4348 87.4192 63.173 87.416 62.9109C87.4255 62.5801 87.3932 62.2494 87.3198 61.9268C87.2543 61.6884 87.1299 61.4706 86.9581 61.2936ZM86.4521 63.394C86.4479 63.5187 86.4168 63.641 86.361 63.7526C86.3049 63.8585 86.2162 63.9432 86.1081 63.9941C85.9626 64.0591 85.8041 64.0887 85.6451 64.0806L85.1974 64.0806L85.1974 61.7385L85.7033 61.7385C85.8557 61.7311 86.0075 61.7607 86.146 61.8251C86.2475 61.8833 86.3281 61.9723 86.3762 62.0793C86.4299 62.2003 86.4591 62.3308 86.4622 62.4633C86.4622 62.6083 86.4622 62.7609 86.4622 62.921C86.4622 63.0812 86.4724 63.2465 86.4622 63.394L86.4521 63.394Z" fill="#8E8F99" fill-opacity="1.000000" fill-rule="nonzero"/>
		<path id="Vector" d="M91.6077 60.8105L90.8032 60.8105L89.2854 67.6993L90.2669 67.6993L90.5553 66.2194L91.8936 66.2194L92.1819 67.6993L93.1635 67.6993L91.6077 60.8105ZM90.702 65.281L91.1852 62.7838L91.2029 62.7838L91.6836 65.281L90.702 65.281Z" fill="#8E8F99" fill-opacity="1.000000" fill-rule="nonzero"/>
		<path id="Vector" d="M97.9497 64.9606L97.932 64.9606L96.4496 60.8105L95.506 60.8105L95.506 67.6993L96.4875 67.6993L96.4875 63.5569L96.5078 63.5569L98.0079 67.6993L98.9312 67.6993L98.9312 60.8105L97.9497 60.8105L97.9497 64.9606Z" fill="#8E8F99" fill-opacity="1.000000" fill-rule="nonzero"/>
		<path id="Vector" d="M103.948 60.8105L103.158 63.5493L103.138 63.5493L102.349 60.8105L101.309 60.8105L102.657 64.7877L102.657 67.6993L103.639 67.6993L103.639 64.7877L104.987 60.8105L103.948 60.8105Z" fill="#8E8F99" fill-opacity="1.000000" fill-rule="nonzero"/>
		<path id="Vector" d="M65 69.6447L65.4731 69.6447L65.4731 70.972L65.7943 70.972L65.7943 69.6447L66.2649 69.6447L66.2649 69.3726L65 69.3726L65 69.6447Z" fill="#8E8F99" fill-opacity="1.000000" fill-rule="nonzero"/>
		<path id="Vector" d="M68.9767 69.3726L68.3569 70.972L68.6984 70.972L68.83 70.6084L69.4675 70.6084L69.6041 70.972L69.9532 70.972L69.3182 69.3726L68.9767 69.3726ZM68.9261 70.3389L69.1437 69.7463L69.3612 70.3389L68.9261 70.3389Z" fill="#8E8F99" fill-opacity="1.000000" fill-rule="nonzero"/>
		<path id="Vector" d="M72.908 70.3821L73.2773 70.3821L73.2773 70.5881C73.1694 70.6746 73.0358 70.722 72.8978 70.7229C72.8333 70.7264 72.7689 70.7145 72.7099 70.688C72.6509 70.6615 72.5991 70.6211 72.5588 70.5703C72.474 70.4485 72.4322 70.3018 72.4399 70.1533C72.4399 69.7972 72.5942 69.6193 72.9003 69.6193C72.9809 69.6112 73.0617 69.6324 73.1281 69.6791C73.1944 69.7257 73.2419 69.7947 73.2621 69.8735L73.5783 69.8125C73.51 69.4998 73.2849 69.342 72.9003 69.342C72.6947 69.3365 72.4947 69.4103 72.3412 69.5481C72.2607 69.6277 72.1984 69.7239 72.1586 69.8302C72.1188 69.9365 72.1026 70.0502 72.1111 70.1635C72.1017 70.3823 72.1749 70.5966 72.316 70.7635C72.3943 70.8444 72.4892 70.9071 72.594 70.9475C72.6989 70.9879 72.8111 71.0049 72.9231 70.9976C73.1734 71.0045 73.4165 70.9133 73.6011 70.7432L73.6011 70.1125L72.908 70.1125L72.908 70.3821Z" fill="#8E8F99" fill-opacity="1.000000" fill-rule="nonzero"/>
		<path id="Vector" d="M76.9225 69.3726L76.5988 69.3726L76.5988 70.972L77.7194 70.972L77.7194 70.7L76.9225 70.7L76.9225 69.3726Z" fill="#8E8F99" fill-opacity="1.000000" fill-rule="nonzero"/>
		<path id="Vector" d="M79.9937 69.3726L80.3174 69.3726L80.3174 70.972L79.9937 70.972L79.9937 69.3726Z" fill="#8E8F99" fill-opacity="1.000000" fill-rule="evenodd"/>
		<path id="Vector" d="M83.6365 70.4406L82.9813 69.3726L82.6676 69.3726L82.6676 70.972L82.9686 70.972L82.9686 69.9269L83.6112 70.972L83.9324 70.972L83.9324 69.3726L83.6365 69.3726L83.6365 70.4406Z" fill="#8E8F99" fill-opacity="1.000000" fill-rule="nonzero"/>
		<path id="Vector" d="M86.6368 70.2677L87.4337 70.2677L87.4337 69.9956L86.6368 69.9956L86.6368 69.6447L87.4944 69.6447L87.4944 69.3726L86.313 69.3726L86.313 70.972L87.5273 70.972L87.5273 70.7L86.6368 70.7L86.6368 70.2677Z" fill="#8E8F99" fill-opacity="1.000000" fill-rule="nonzero"/>
		<path id="Vector" d="M93.9122 70.0032L93.2823 70.0032L93.2823 69.3726L92.9611 69.3726L92.9611 70.972L93.2823 70.972L93.2823 70.2727L93.9122 70.2727L93.9122 70.972L94.2335 70.972L94.2335 69.3726L93.9122 69.3726L93.9122 70.0032Z" fill="#8E8F99" fill-opacity="1.000000" fill-rule="nonzero"/>
		<path id="Vector" d="M96.9302 70.2677L97.7296 70.2677L97.7296 69.9956L96.9302 69.9956L96.9302 69.6447L97.7903 69.6447L97.7903 69.3726L96.6089 69.3726L96.6089 70.972L97.8206 70.972L97.8206 70.7L96.9302 70.7L96.9302 70.2677Z" fill="#8E8F99" fill-opacity="1.000000" fill-rule="nonzero"/>
		<path id="Vector" d="M101.023 70.2676C101.302 70.2244 101.443 70.0769 101.443 69.8226C101.451 69.7545 101.441 69.6855 101.413 69.6229C101.386 69.5603 101.342 69.5063 101.286 69.4666C101.141 69.3938 100.98 69.3613 100.818 69.3726L100.14 69.3726L100.14 70.972L100.462 70.972L100.462 70.3032L100.525 70.3032C100.593 70.299 100.662 70.3112 100.725 70.3389C100.772 70.3678 100.811 70.408 100.839 70.4558L101.188 70.9644L101.572 70.9644L101.377 70.6516C101.291 70.4972 101.17 70.3656 101.023 70.2676ZM100.699 70.0464L100.462 70.0464L100.462 69.6447L100.715 69.6447C100.825 69.6356 100.936 69.6486 101.041 69.6827C101.064 69.7034 101.083 69.7291 101.095 69.7579C101.107 69.7867 101.113 69.8179 101.111 69.8491C101.11 69.8804 101.101 69.911 101.087 69.9385C101.072 69.9661 101.051 69.9899 101.026 70.0082C100.92 70.0406 100.81 70.0536 100.699 70.0464Z" fill="#8E8F99" fill-opacity="1.000000" fill-rule="nonzero"/>
		<path id="Vector" d="M104.11 70.2677L104.906 70.2677L104.906 69.9956L104.11 69.9956L104.11 69.6447L104.97 69.6447L104.97 69.3726L103.786 69.3726L103.786 70.972L105 70.972L105 70.7L104.11 70.7L104.11 70.2677Z" fill="#8E8F99" fill-opacity="1.000000" fill-rule="nonzero"/>
	</g>
</svg>
