<svg width="18.000000" height="24.000000" viewBox="0 0 18 24" fill="none" xmlns="http://www.w3.org/2000/svg" xmlns:xlink="http://www.w3.org/1999/xlink">
	<desc>
			Created with Pixso.
	</desc>
	<defs>
		<clipPath id="clip302815_5431">
			<rect id="email-black-18dp 1" width="18.000000" height="24.000000" fill="white" fill-opacity="0"/>
		</clipPath>
	</defs>
	<rect id="email-black-18dp 1" width="18.000000" height="24.000000" fill="#FFFFFF" fill-opacity="0"/>
	<g clip-path="url(#clip302815_5431)">
		<path id="Vector" d="M15 6L3 6C2.17505 6 1.50745 6.67505 1.50745 7.5L1.5 16.5C1.5 17.325 2.17505 18 3 18L15 18C15.825 18 16.5 17.325 16.5 16.5L16.5 7.5C16.5 6.67505 15.825 6 15 6ZM14.7 9.1875L9.39746 12.5024C9.15747 12.6525 8.84253 12.6525 8.60254 12.5024L3.30005 9.1875C3.11255 9.0675 3 8.86499 3 8.64746C3 8.14502 3.54749 7.84497 3.97498 8.10754L9 11.25L14.025 8.10754C14.4525 7.84497 15 8.14502 15 8.64746C15 8.86499 14.8875 9.0675 14.7 9.1875Z" fill="#2E2F42" fill-opacity="1.000000" fill-rule="nonzero"/>
	</g>
</svg>
