<svg width="264.000000" height="112.000000" viewBox="0 0 264 112" fill="none" xmlns="http://www.w3.org/2000/svg" xmlns:xlink="http://www.w3.org/1999/xlink">
	<desc>
			Created with Pixso.
	</desc>
	<defs>
		<clipPath id="clip297080_1794">
			<rect id="diagram 1" width="64.000000" height="64.000000" transform="translate(100.000000 24.000000)" fill="white" fill-opacity="0"/>
		</clipPath>
	</defs>
	<rect id="Rectangle 3" rx="4.000000" width="264.000000" height="112.000000" fill="#F4F4FD" fill-opacity="1.000000"/>
	<rect id="diagram 1" width="64.000000" height="64.000000" transform="translate(100.000000 24.000000)" fill="#FFFFFF" fill-opacity="0"/>
	<g clip-path="url(#clip297080_1794)">
		<path id="Vector" d="M129.851 53.9292L131.983 53.9292L131.983 63.5242L129.851 63.5242L129.851 53.9292Z" fill="#4D5AE5" fill-opacity="1.000000" fill-rule="nonzero"/>
		<path id="Vector" d="M138.38 58.1937L140.512 58.1937L140.512 63.5242L138.38 63.5242L138.38 58.1937Z" fill="#4D5AE5" fill-opacity="1.000000" fill-rule="nonzero"/>
		<path id="Vector" d="M121.322 61.392L123.454 61.392L123.454 63.5242L121.322 63.5242L121.322 61.392Z" fill="#4D5AE5" fill-opacity="1.000000" fill-rule="nonzero"/>
		<path id="Vector" d="M114.926 60.3259L117.058 60.3259L117.058 63.5242L114.926 63.5242L114.926 60.3259Z" fill="#4D5AE5" fill-opacity="1.000000" fill-rule="nonzero"/>
		<path id="Vector" d="M103.198 80.5819L154.372 80.5819C156.138 80.5819 157.57 79.1498 157.57 77.3836L157.57 73.1192C157.57 71.3529 156.138 69.9208 154.372 69.9208L153.305 69.9208L153.305 43.3342L159.361 37.5977C160.767 38.2905 162.468 37.8699 163.388 36.6003C164.308 35.3311 164.179 33.5836 163.083 32.4633C161.986 31.3431 160.242 31.176 158.953 32.0677C157.664 32.96 157.206 34.6513 157.868 36.0719L153.305 40.3972L153.305 37.9376C153.305 36.1713 151.873 34.7393 150.107 34.7393L107.463 34.7393C105.697 34.7393 104.264 36.1713 104.264 37.9376L104.264 69.9208L103.198 69.9208C101.432 69.9208 100 71.3529 100 73.1192L100 77.3836C100 79.1498 101.432 80.5819 103.198 80.5819ZM160.768 33.6732C161.357 33.6732 161.834 34.1505 161.834 34.7393C161.834 35.328 161.357 35.8054 160.768 35.8054C160.179 35.8054 159.702 35.328 159.702 34.7393C159.702 34.1505 160.179 33.6732 160.768 33.6732ZM106.397 37.9376C106.397 37.3488 106.874 36.8715 107.463 36.8715L150.107 36.8715C150.696 36.8715 151.173 37.3488 151.173 37.9376L151.173 42.4149L149.041 44.4409L149.041 40.0698C149.041 39.481 148.564 39.0037 147.975 39.0037L109.595 39.0037C109.006 39.0037 108.529 39.481 108.529 40.0698L108.529 66.7225C108.529 67.3113 109.006 67.7886 109.595 67.7886L147.975 67.7886C148.564 67.7886 149.041 67.3113 149.041 66.7225L149.041 47.3738L151.173 45.3535L151.173 69.9208L106.397 69.9208L106.397 37.9376ZM115.992 51.797C114.549 51.7928 113.283 52.7538 112.899 54.1442C112.515 55.5346 113.109 57.0094 114.35 57.7454C115.59 58.4815 117.17 58.2967 118.206 57.2936L121.912 59.153C122.342 59.3686 122.865 59.2675 123.185 58.9078L131.062 50.0453L138.806 55.848C139.222 56.1593 139.802 56.126 140.178 55.7694L146.909 49.3941L146.909 65.6564L110.661 65.6564L110.661 41.1359L146.909 41.1359L146.909 46.4565L139.366 53.5997L131.557 47.7455C131.113 47.4133 130.489 47.4758 130.121 47.8896L122.135 56.8751L119.149 55.3821C119.171 55.254 119.185 55.1249 119.19 54.9953C119.19 53.2291 117.758 51.797 115.992 51.797ZM117.058 54.9953C117.058 55.5841 116.58 56.0614 115.992 56.0614C115.403 56.0614 114.926 55.5841 114.926 54.9953C114.926 54.4066 115.403 53.9292 115.992 53.9292C116.58 53.9292 117.058 54.4066 117.058 54.9953ZM123.454 72.053L134.115 72.053L134.115 73.1192C134.115 73.7079 133.638 74.1853 133.049 74.1853L124.521 74.1853C123.932 74.1853 123.454 73.7079 123.454 73.1192L123.454 72.053ZM102.132 73.1192C102.132 72.5304 102.61 72.053 103.198 72.053L121.322 72.053L121.322 73.1192C121.322 74.8854 122.754 76.3175 124.521 76.3175L133.049 76.3175C134.816 76.3175 136.248 74.8854 136.248 73.1192L136.248 72.053L154.372 72.053C154.96 72.053 155.438 72.5304 155.438 73.1192L155.438 77.3836C155.438 77.9724 154.96 78.4497 154.372 78.4497L103.198 78.4497C102.61 78.4497 102.132 77.9724 102.132 77.3836L102.132 73.1192Z" fill="#2E2F42" fill-opacity="1.000000" fill-rule="nonzero"/>
	</g>
</svg>
