<svg width="40.000000" height="40.000000" viewBox="0 0 40 40" fill="none" xmlns="http://www.w3.org/2000/svg" xmlns:xlink="http://www.w3.org/1999/xlink">
	<desc>
			Created with Pixso.
	</desc>
	<defs>
		<clipPath id="clip2_1602">
			<rect id="instagram 2" width="16.000000" height="16.000000" transform="translate(12.000000 12.000000)" fill="white" fill-opacity="0"/>
		</clipPath>
	</defs>
	<rect id="Ellipse" width="40.000000" height="40.000000" fill="#FFFFFF" fill-opacity="0"/>
	<path id="Ellipse" d="M40 20C40 25.5228 37.7614 30.5228 34.1422 34.1421C30.5228 37.7615 25.5228 40 20 40C14.4772 40 9.47717 37.7615 5.85785 34.1421C2.23859 30.5228 0 25.5228 0 20C0 14.4772 2.23859 9.47717 5.85785 5.85791C9.47717 2.23853 14.4772 0 20 0C25.5228 0 30.5228 2.23853 34.1422 5.85791C37.7614 9.47717 40 14.4772 40 20Z" fill="#4D5AE5" fill-opacity="1.000000" fill-rule="nonzero"/>
	<rect id="instagram 2" width="16.000000" height="16.000000" transform="translate(12.000000 12.000000)" fill="#FFFFFF" fill-opacity="0"/>
	<g clip-path="url(#clip2_1602)">
		<path id="Vector" d="M27.9843 16.7041C27.9468 15.8539 27.8093 15.2694 27.6124 14.7629C27.4092 14.2255 27.0967 13.7441 26.6872 13.344C26.287 12.9377 25.8026 12.6219 25.2712 12.422C24.7619 12.225 24.1805 12.0875 23.3303 12.05C22.4738 12.0094 22.2019 12 20.0296 12C17.8574 12 17.5854 12.0094 16.7321 12.0469C15.882 12.0844 15.2975 12.2219 14.7912 12.4188C14.2535 12.6219 13.7722 12.9344 13.3721 13.344C12.9658 13.7441 12.6501 14.2286 12.45 14.7599C12.2531 15.2694 12.1156 15.8507 12.0781 16.7009C12.0375 17.5574 12.0281 17.8292 12.0281 20.0016C12.0281 22.1738 12.0375 22.4458 12.075 23.2991C12.1124 24.1492 12.2501 24.7336 12.447 25.2401C12.6501 25.7777 12.9658 26.259 13.3721 26.6591C13.7722 27.0654 14.2567 27.3812 14.788 27.5812C15.2975 27.7781 15.8788 27.9155 16.7291 27.9531C17.5823 27.9907 17.8543 28 20.0266 28C22.1989 28 22.4708 27.9907 23.3241 27.9531C24.1743 27.9155 24.7587 27.7781 25.265 27.5812C26.3403 27.1654 27.1904 26.3153 27.6062 25.2401C27.803 24.7306 27.9406 24.1492 27.9781 23.2991C28.0156 22.4458 28.025 22.1738 28.025 20.0016C28.025 17.8292 28.0218 17.5574 27.9843 16.7041ZM26.5435 23.2366C26.509 24.0179 26.3778 24.4399 26.2684 24.7212C25.9995 25.4182 25.4464 25.9714 24.7493 26.2404C24.468 26.3497 24.043 26.481 23.2646 26.5153C22.4207 26.5529 22.1676 26.5621 20.0328 26.5621C17.898 26.5621 17.6417 26.5529 16.8008 26.5153C16.0195 26.481 15.5975 26.3497 15.3162 26.2404C14.9693 26.1122 14.6536 25.9089 14.3973 25.6433C14.1317 25.3838 13.9285 25.0713 13.8003 24.7244C13.6909 24.4431 13.5596 24.0179 13.5253 23.2397C13.4877 22.3959 13.4785 22.1426 13.4785 20.0078C13.4785 17.8729 13.4877 17.6167 13.5253 16.776C13.5596 15.9945 13.6909 15.5726 13.8003 15.2913C13.9285 14.9443 14.1317 14.6287 14.4005 14.3723C14.6598 14.1066 14.9724 13.9034 15.3193 13.7754C15.6006 13.666 16.0258 13.5347 16.804 13.5002C17.6479 13.4628 17.9012 13.4534 20.0359 13.4534C22.1738 13.4534 22.4269 13.4628 23.2678 13.5002C24.0492 13.5347 24.4712 13.666 24.7525 13.7754C25.0994 13.9034 25.4151 14.1066 25.6713 14.3723C25.937 14.6317 26.1402 14.9443 26.2684 15.2913C26.3778 15.5726 26.509 15.9976 26.5435 16.776C26.5809 17.6199 26.5903 17.8729 26.5903 20.0078C26.5903 22.1426 26.5809 22.3927 26.5435 23.2366Z" fill="#F4F4FD" fill-opacity="1.000000" fill-rule="nonzero"/>
		<path id="Vector" d="M20.0296 15.8911C17.7605 15.8911 15.9194 17.7321 15.9194 20.0013C15.9194 22.2705 17.7605 24.1115 20.0296 24.1115C22.2988 24.1115 24.1398 22.2705 24.1398 20.0013C24.1398 17.7321 22.2988 15.8911 20.0296 15.8911ZM20.0296 22.6675C18.5575 22.6675 17.3635 21.4735 17.3635 20.0013C17.3635 18.5291 18.5575 17.3351 20.0296 17.3351C21.5018 17.3351 22.6958 18.5291 22.6958 20.0013C22.6958 21.4735 21.5018 22.6675 20.0296 22.6675Z" fill="#F4F4FD" fill-opacity="1.000000" fill-rule="nonzero"/>
		<path id="Vector" d="M25.262 15.7289C25.262 16.2587 24.8323 16.6884 24.3023 16.6884C23.7724 16.6884 23.3428 16.2587 23.3428 15.7289C23.3428 15.1989 23.7724 14.7693 24.3023 14.7693C24.8323 14.7693 25.262 15.1989 25.262 15.7289Z" fill="#F4F4FD" fill-opacity="1.000000" fill-rule="nonzero"/>
	</g>
</svg>
