<svg width="116.000000" height="24.000000" viewBox="0 0 116 24" fill="none" xmlns="http://www.w3.org/2000/svg" xmlns:xlink="http://www.w3.org/1999/xlink">
	<desc>
			Created with Pixso.
	</desc>
	<defs/>
	<path id="Web" d="M7.27 5.59L4.55 5.59L6.69 11.53L5.43 14.93L2.21 5.57L-0.99 5.57L3.98 18.35L6.55 18.35L8.6 13.35L10.67 18.35L13.23 18.35L18.21 5.57L14.99 5.57L11.79 14.93L10.49 11.53L12.67 5.59L9.93 5.59L8.6 9.67L7.27 5.59ZM28.85 18.35L28.85 15.76L22.82 15.76L22.82 13.04L27.86 13.04L27.86 10.65L22.82 10.65L22.82 8.16L28.68 8.16L28.68 5.57L19.86 5.57L19.86 18.35L28.85 18.35ZM41.15 16.91C41.55 16.42 41.75 15.81 41.75 15.07C41.75 14.21 41.53 13.5 41.1 12.95Q40.93 12.73 40.74 12.55Q40.18 12.04 39.37 11.8C39.97 11.52 40.43 11.11 40.74 10.57C41.05 10.02 41.21 9.45 41.21 8.85C41.21 8.31 41.09 7.78 40.85 7.28C40.62 6.78 40.28 6.37 39.84 6.06C39.41 5.73 38.89 5.57 38.29 5.57L31.18 5.57L31.18 18.35L37.41 18.35C38.2 18.35 38.93 18.23 39.59 17.99C40.25 17.75 40.77 17.39 41.15 16.91ZM34.13 10.74L34.13 8.09L37.14 8.09C37.35 8.09 37.55 8.14 37.71 8.25C37.88 8.35 38.01 8.49 38.11 8.68C38.22 8.88 38.27 9.12 38.27 9.4C38.27 9.7 38.21 9.96 38.09 10.16C37.97 10.35 37.82 10.5 37.62 10.59C37.44 10.69 37.25 10.74 37.03 10.74L34.13 10.74ZM38.58 13.76C38.69 13.96 38.74 14.2 38.74 14.48C38.74 14.74 38.68 14.98 38.56 15.18C38.44 15.39 38.28 15.55 38.07 15.67C37.88 15.79 37.66 15.85 37.41 15.85L34.13 15.85L34.13 13.06L37.53 13.06C37.77 13.06 37.98 13.12 38.15 13.26C38.33 13.38 38.47 13.54 38.58 13.76Z" fill="#4D5AE5" fill-opacity="1.000000" fill-rule="evenodd"/>
	<path id="Studio" d="M51.63 9.04C51.85 9.16 51.97 9.25 52.01 9.31L53.3 6.87C52.92 6.65 52.48 6.43 51.99 6.22Q51.27 5.89 50.42 5.68C49.87 5.53 49.3 5.46 48.7 5.46Q47.52 5.46 46.51 5.87Q46.43 5.91 46.34 5.95C45.62 6.26 45.04 6.73 44.61 7.35C44.19 7.96 43.98 8.72 43.98 9.62Q43.98 10.59 44.34 11.24Q44.72 11.89 45.47 12.34C45.99 12.64 46.64 12.91 47.42 13.15Q48.32 13.42 49 13.63C49.47 13.78 49.84 13.94 50.1 14.12C50.38 14.3 50.51 14.55 50.51 14.88C50.51 15.18 50.38 15.41 50.12 15.58C49.87 15.75 49.48 15.83 48.95 15.83Q48.7 15.83 48.45 15.81Q47.97 15.76 47.49 15.63C47.01 15.5 46.57 15.35 46.18 15.18C45.79 15 45.47 14.83 45.2 14.68C44.94 14.51 44.78 14.4 44.74 14.34L43.44 16.91Q44.2 17.41 45.1 17.77Q46 18.12 46.97 18.31Q47.96 18.49 48.89 18.49Q49.81 18.49 50.68 18.29C51.25 18.15 51.76 17.93 52.21 17.63C52.66 17.32 53.02 16.92 53.29 16.42Q53.68 15.67 53.68 14.59Q53.68 13.4 53.2 12.68C52.88 12.2 52.43 11.81 51.83 11.51Q50.93 11.04 49.7 10.72C49.13 10.55 48.64 10.41 48.25 10.29C47.85 10.15 47.54 10 47.33 9.84C47.12 9.67 47.02 9.44 47.02 9.15Q47.02 8.82 47.18 8.6Q47.28 8.46 47.44 8.36C47.71 8.18 48.1 8.09 48.61 8.09Q49.18 8.09 49.76 8.25C50.14 8.36 50.5 8.49 50.82 8.63C51.14 8.77 51.41 8.91 51.63 9.04ZM104.01 17.92C104.79 18.28 105.66 18.46 106.62 18.46C107.55 18.46 108.39 18.28 109.16 17.94C109.94 17.58 110.62 17.1 111.19 16.5C111.77 15.88 112.21 15.19 112.53 14.43C112.84 13.66 112.99 12.85 112.99 12C112.99 11.19 112.84 10.41 112.54 9.64C112.24 8.86 111.81 8.16 111.25 7.53C110.7 6.91 110.03 6.42 109.25 6.06C108.48 5.68 107.62 5.5 106.68 5.5C105.75 5.5 104.9 5.67 104.12 6.02C103.34 6.37 102.66 6.85 102.09 7.46Q101.74 7.82 101.46 8.22Q101.04 8.82 100.75 9.51C100.44 10.28 100.29 11.09 100.29 11.94C100.29 12.77 100.44 13.57 100.74 14.35C101.04 15.12 101.46 15.82 102.01 16.44C102.58 17.05 103.24 17.54 104.01 17.92ZM61.8 8.16L65.69 8.16L65.69 5.57L54.95 5.57L54.95 8.16L58.85 8.16L58.85 18.35L61.8 18.35L61.8 8.16ZM70.55 17.95C71.27 18.29 72.14 18.46 73.16 18.46Q74.66 18.46 75.72 17.97C76.44 17.65 77.03 17.2 77.48 16.62C77.94 16.03 78.28 15.36 78.49 14.59C78.72 13.82 78.83 12.99 78.83 12.1L78.83 5.57L75.88 5.57L75.88 12.1C75.88 12.57 75.83 13.03 75.74 13.47C75.64 13.92 75.49 14.32 75.29 14.68C75.08 15.03 74.81 15.31 74.46 15.52C74.11 15.73 73.68 15.83 73.16 15.83C72.66 15.83 72.23 15.73 71.89 15.52C71.55 15.32 71.27 15.04 71.06 14.7Q70.73 14.17 70.59 13.51C70.49 13.05 70.45 12.58 70.45 12.1L70.45 5.57L67.49 5.57L67.49 12.1Q67.49 13.36 67.8 14.52Q68.09 15.54 68.66 16.37Q68.72 16.46 68.79 16.55C69.25 17.14 69.83 17.61 70.55 17.95ZM81.66 5.57L81.66 18.35L86.43 18.35C87.72 18.35 88.83 18.09 89.78 17.56C90.74 17.03 91.48 16.29 92.01 15.33Q92.8 13.89 92.8 11.94C92.8 10.77 92.56 9.7 92.08 8.74C91.6 7.77 90.89 7 89.94 6.43C89.01 5.86 87.84 5.57 86.43 5.57L81.66 5.57ZM95.09 5.57L95.09 18.35L98.04 18.35L98.04 5.57L95.09 5.57ZM103.51 13.42C103.36 12.95 103.29 12.47 103.29 11.98C103.29 11.5 103.36 11.03 103.49 10.57C103.63 10.1 103.84 9.69 104.12 9.33C104.41 8.96 104.76 8.67 105.16 8.45C105.58 8.23 106.08 8.13 106.64 8.13Q107.43 8.13 108.06 8.43C108.48 8.64 108.84 8.92 109.12 9.3C109.41 9.66 109.63 10.06 109.77 10.52C109.92 10.98 109.99 11.45 109.99 11.94C109.99 12.42 109.92 12.9 109.77 13.36C109.64 13.82 109.44 14.23 109.16 14.61C108.88 14.98 108.54 15.28 108.12 15.51C107.7 15.72 107.2 15.83 106.64 15.83Q105.83 15.83 105.2 15.51Q104.8 15.3 104.48 15Q104.29 14.84 104.14 14.64C103.86 14.28 103.65 13.87 103.51 13.42ZM89.4 9.98C89.67 10.54 89.8 11.2 89.8 11.94Q89.8 13.02 89.4 13.9C89.14 14.48 88.75 14.94 88.25 15.27C87.76 15.6 87.15 15.76 86.43 15.76L84.61 15.76L84.61 8.16L86.43 8.16C87.14 8.16 87.75 8.32 88.25 8.65C88.75 8.96 89.14 9.4 89.4 9.98Z" fill="#F4F4FD" fill-opacity="1.000000" fill-rule="evenodd"/>
</svg>
