<svg width="115.000000" height="24.000000" viewBox="0 0 115 24" fill="none" xmlns="http://www.w3.org/2000/svg" xmlns:xlink="http://www.w3.org/1999/xlink">
	<desc>
			Created with Pixso.
	</desc>
	<defs/>
	<path id="Web" d="M8.15 5.59L5.43 5.59L7.57 11.53L6.31 14.93L3.09 5.57L-0.11 5.57L4.86 18.35L7.43 18.35L9.48 13.35L11.55 18.35L14.11 18.35L19.09 5.57L15.87 5.57L12.67 14.93L11.37 11.53L13.55 5.59L10.81 5.59L9.48 9.67L8.15 5.59ZM29.73 18.35L29.73 15.76L23.7 15.76L23.7 13.04L28.74 13.04L28.74 10.65L23.7 10.65L23.7 8.16L29.56 8.16L29.56 5.57L20.74 5.57L20.74 18.35L29.73 18.35ZM42.03 16.91C42.43 16.42 42.62 15.81 42.62 15.07C42.62 14.21 42.41 13.5 41.98 12.95Q41.81 12.73 41.62 12.55Q41.06 12.04 40.25 11.8C40.85 11.52 41.3 11.11 41.62 10.57C41.93 10.02 42.08 9.45 42.08 8.85C42.08 8.31 41.96 7.78 41.72 7.28C41.5 6.78 41.16 6.37 40.72 6.06C40.28 5.73 39.77 5.57 39.17 5.57L32.06 5.57L32.06 18.35L38.29 18.35C39.08 18.35 39.8 18.23 40.46 17.99C41.12 17.75 41.65 17.39 42.03 16.91ZM35.01 10.74L35.01 8.09L38.02 8.09C38.23 8.09 38.42 8.14 38.59 8.25C38.76 8.35 38.89 8.49 38.99 8.68C39.1 8.88 39.15 9.12 39.15 9.4C39.15 9.7 39.09 9.96 38.97 10.16C38.85 10.35 38.69 10.5 38.5 10.59C38.32 10.69 38.12 10.74 37.91 10.74L35.01 10.74ZM39.46 13.76C39.56 13.96 39.62 14.2 39.62 14.48C39.62 14.74 39.56 14.98 39.44 15.18C39.32 15.39 39.16 15.55 38.95 15.67C38.76 15.79 38.54 15.85 38.29 15.85L35.01 15.85L35.01 13.06L38.41 13.06C38.65 13.06 38.86 13.12 39.02 13.26C39.2 13.38 39.35 13.54 39.46 13.76Z" fill="#4D5AE5" fill-opacity="1.000000" fill-rule="evenodd"/>
	<path id="Studio" d="M52.51 9.04C52.73 9.16 52.85 9.25 52.89 9.31L54.18 6.87C53.8 6.65 53.36 6.43 52.87 6.22Q52.15 5.89 51.3 5.68C50.75 5.53 50.18 5.46 49.58 5.46Q48.4 5.46 47.39 5.87Q47.3 5.91 47.22 5.95C46.5 6.26 45.92 6.73 45.49 7.35C45.07 7.96 44.86 8.72 44.86 9.62Q44.86 10.59 45.22 11.24Q45.6 11.89 46.35 12.34C46.87 12.64 47.52 12.91 48.3 13.15Q49.2 13.42 49.88 13.63C50.35 13.78 50.72 13.94 50.98 14.12C51.26 14.3 51.39 14.55 51.39 14.88C51.39 15.18 51.26 15.41 51 15.58C50.75 15.75 50.36 15.83 49.83 15.83Q49.58 15.83 49.33 15.81Q48.85 15.76 48.37 15.63C47.89 15.5 47.45 15.35 47.06 15.18C46.67 15 46.35 14.83 46.08 14.68C45.82 14.51 45.66 14.4 45.62 14.34L44.32 16.91Q45.08 17.41 45.98 17.77Q46.88 18.12 47.85 18.31Q48.84 18.49 49.77 18.49Q50.69 18.49 51.56 18.29C52.13 18.15 52.64 17.93 53.09 17.63C53.54 17.32 53.9 16.92 54.17 16.42Q54.56 15.67 54.56 14.59Q54.56 13.4 54.08 12.68C53.76 12.2 53.31 11.81 52.71 11.51Q51.81 11.04 50.58 10.72C50.01 10.55 49.52 10.41 49.13 10.29C48.73 10.15 48.42 10 48.21 9.84C48 9.67 47.9 9.44 47.9 9.15Q47.9 8.82 48.06 8.6Q48.15 8.46 48.32 8.36C48.59 8.18 48.98 8.09 49.49 8.09Q50.06 8.09 50.64 8.25C51.02 8.36 51.38 8.49 51.7 8.63C52.02 8.77 52.29 8.91 52.51 9.04ZM104.89 17.92C105.67 18.28 106.54 18.46 107.5 18.46C108.42 18.46 109.27 18.28 110.04 17.94C110.82 17.58 111.5 17.1 112.07 16.5C112.65 15.88 113.09 15.19 113.4 14.43C113.72 13.66 113.87 12.85 113.87 12C113.87 11.19 113.72 10.41 113.42 9.64C113.12 8.86 112.69 8.16 112.13 7.53C111.57 6.91 110.91 6.42 110.13 6.06C109.36 5.68 108.5 5.5 107.55 5.5C106.63 5.5 105.78 5.67 105 6.02C104.22 6.37 103.54 6.85 102.96 7.46Q102.62 7.82 102.34 8.22Q101.92 8.82 101.63 9.51C101.32 10.28 101.16 11.09 101.16 11.94C101.16 12.77 101.31 13.57 101.61 14.35C101.91 15.12 102.34 15.82 102.89 16.44C103.46 17.05 104.12 17.54 104.89 17.92ZM62.68 8.16L66.57 8.16L66.57 5.57L55.83 5.57L55.83 8.16L59.73 8.16L59.73 18.35L62.68 18.35L62.68 8.16ZM71.43 17.95C72.15 18.29 73.02 18.46 74.04 18.46Q75.54 18.46 76.6 17.97C77.32 17.65 77.91 17.2 78.36 16.62C78.82 16.03 79.15 15.36 79.37 14.59C79.6 13.82 79.71 12.99 79.71 12.1L79.71 5.57L76.76 5.57L76.76 12.1C76.76 12.57 76.71 13.03 76.62 13.47C76.52 13.92 76.37 14.32 76.17 14.68C75.96 15.03 75.69 15.31 75.34 15.52C74.99 15.73 74.56 15.83 74.04 15.83C73.54 15.83 73.11 15.73 72.76 15.52C72.43 15.32 72.15 15.04 71.94 14.7Q71.61 14.17 71.47 13.51C71.37 13.05 71.32 12.58 71.32 12.1L71.32 5.57L68.37 5.57L68.37 12.1Q68.37 13.36 68.68 14.52Q68.97 15.54 69.54 16.37Q69.6 16.46 69.67 16.55C70.12 17.14 70.71 17.61 71.43 17.95ZM82.54 5.57L82.54 18.35L87.31 18.35C88.59 18.35 89.71 18.09 90.66 17.56C91.62 17.03 92.36 16.29 92.89 15.33Q93.68 13.89 93.68 11.94C93.68 10.77 93.44 9.7 92.96 8.74C92.48 7.77 91.77 7 90.82 6.43C89.88 5.86 88.71 5.57 87.31 5.57L82.54 5.57ZM95.96 5.57L95.96 18.35L98.92 18.35L98.92 5.57L95.96 5.57ZM104.39 13.42C104.24 12.95 104.17 12.47 104.17 11.98C104.17 11.5 104.24 11.03 104.37 10.57C104.51 10.1 104.72 9.69 105 9.33C105.29 8.96 105.63 8.67 106.04 8.45C106.46 8.23 106.95 8.13 107.52 8.13Q108.31 8.13 108.94 8.43C109.36 8.64 109.71 8.92 110 9.3C110.29 9.66 110.51 10.06 110.65 10.52C110.79 10.98 110.87 11.45 110.87 11.94C110.87 12.42 110.79 12.9 110.65 13.36C110.52 13.82 110.31 14.23 110.04 14.61C109.76 14.98 109.41 15.28 108.99 15.51C108.57 15.72 108.08 15.83 107.52 15.83Q106.71 15.83 106.08 15.51Q105.68 15.3 105.35 15Q105.17 14.84 105.02 14.64C104.74 14.28 104.53 13.87 104.39 13.42ZM90.28 9.98C90.54 10.54 90.68 11.2 90.68 11.94Q90.68 13.02 90.28 13.9C90.02 14.48 89.63 14.94 89.13 15.27C88.64 15.6 88.03 15.76 87.31 15.76L85.49 15.76L85.49 8.16L87.31 8.16C88.02 8.16 88.62 8.32 89.13 8.65C89.63 8.96 90.02 9.4 90.28 9.98Z" fill="#2E2F42" fill-opacity="1.000000" fill-rule="evenodd"/>
</svg>
