<svg aria-hidden="true" style="position:absolute;width:0;height:0;overflow:hidden" xmlns="http://www.w3.org/2000/svg"><defs><symbol id="icon-facebook" viewBox="0 0 32 32"><path fill="#4d5ae5" style="fill:var(--color1, #4d5ae5)" d="M32 16c0 4.418-1.791 8.418-4.686 11.314S20.418 32 16 32s-8.418-1.791-11.314-4.686C1.791 24.419 0 20.419 0 16S1.791 7.582 4.686 4.686C7.581 1.79 11.581 0 16 0s8.418 1.791 11.314 4.686A15.95 15.95 0 0 1 32 16z"/><path  d="M18.132 11.725h1.169V9.69a15.04 15.04 0 0 0-1.702-.09c-1.685 0-2.839 1.06-2.839 3.007V14.4h-1.859v2.275h1.859V22.4h2.28v-5.724h1.784l.283-2.275h-2.068v-1.567c.001-.658.178-1.108 1.094-1.108z"/></symbol><symbol id="icon-group-1" viewBox="0 0 45 32"><path fill="#8e8f99" style="fill:var(--color3, #8e8f99)" d="M3.408 26.742a.998.998 0 0 1 .263.688c.009.163-.023.326-.094.476s-.178.285-.313.393a1.9 1.9 0 0 1-1.183.317H.001v-4.361h2.037a1.88 1.88 0 0 1 1.129.29c.132.099.236.224.304.366s.1.296.091.45a.943.943 0 0 1-.237.667 1.137 1.137 0 0 1-.62.341c.276.045.525.177.703.373zm-2.44-.658h.871a.893.893 0 0 0 .554-.145c.065-.053.116-.12.149-.193s.046-.154.038-.233c.006-.079-.007-.158-.039-.232s-.082-.14-.145-.194a.908.908 0 0 0-.57-.147H.969v1.144zm1.51 1.672c.07-.055.125-.123.161-.2s.051-.16.045-.243c.005-.084-.011-.168-.047-.246s-.092-.147-.163-.202a.969.969 0 0 0-.592-.158H.969v1.199h.925a.996.996 0 0 0 .584-.151zM7.572 28.617l-1.133-1.704h-.426v1.704h-.975v-4.361h1.846c.465-.029.925.103 1.285.371.258.237.414.549.439.879s-.082.659-.302.925a1.55 1.55 0 0 1-.88.443l1.207 1.743h-1.06zm-1.559-2.299h.797c.554 0 .831-.22.831-.66.006-.09-.01-.18-.045-.264s-.089-.161-.159-.226a.928.928 0 0 0-.627-.177h-.807l.009 1.327zM12.901 27.739h-1.943l-.343.878H9.593l1.784-4.312h1.105l1.777 4.312h-1.022l-.336-.878zm-.26-.66-.71-1.841-.71 1.841h1.42zM19.572 28.617h-.968l-2.17-2.965v2.965h-.965v-4.361h.965l2.17 2.982v-2.982h.968v4.361zM25.095 27.573c-.2.329-.505.597-.876.769a3.113 3.113 0 0 1-1.361.275h-1.723v-4.361h1.723a3.19 3.19 0 0 1 1.361.268c.37.168.676.433.876.761.199.355.303.747.303 1.144s-.104.789-.303 1.144zm-1.107-.104c.276-.29.428-.659.428-1.041s-.152-.751-.428-1.041a1.805 1.805 0 0 0-1.212-.371h-.672v2.823h.672c.442.025.878-.108 1.212-.371zM13.507 0s12.492 4.246 12.227 10.39v10.392S13.252 16.534 13.512 10.39L13.507 0zM36.863 18.349c2.359-1.462 5.088-2.367 7.937-2.633v-3.253c-3.282 1.139-6.067 3.204-7.937 5.886z"/><path fill="#8e8f99" style="fill:var(--color3, #8e8f99)" d="M35.446 19.329c1.931-3.5 5.279-6.202 9.354-7.548V2.408S27.01 8.456 27.386 17.205V32s.793-.27 2.04-.778c0-.473 0-.95.057-1.429.368-4.062 2.513-7.826 5.963-10.464z"/><path fill="#8e8f99" style="fill:var(--color3, #8e8f99)" d="M33.754 24.825a13.9 13.9 0 0 1 .622-3.029c-2.148 2.279-3.449 5.106-3.72 8.085-.026.281-.04.562-.047.852a54.496 54.496 0 0 0 3.422-1.623 13.838 13.838 0 0 1-.277-4.284zM34.461 24.878a13.23 13.23 0 0 0 .22 3.879c4.861-2.618 10.322-6.664 10.111-11.553v-.426c-3.473.35-6.722 1.716-9.248 3.89a13.393 13.393 0 0 0-1.084 4.209z"/></symbol><symbol id="icon-group-2" viewBox="0 0 66 32"><path fill="#8e8f99" style="fill:var(--color3, #8e8f99)" d="M10.205 9.77h.002c1.862 0 3.371 1.361 3.371 3.04v.002c0 1.679-1.509 3.04-3.371 3.04h-.002c-1.862 0-3.371-1.361-3.371-3.04v-.002c0-1.679 1.509-3.04 3.371-3.04zM35.092 8.798c-.005-2.332-1.035-4.566-2.863-6.215S27.922.005 25.336 0c-2.587.004-5.067.933-6.896 2.582s-2.86 3.885-2.865 6.217v12.858s19.515-1.96 19.517-12.856v-.002zM0 25.877c.005 1.622.721 3.177 1.994 4.325s2.996 1.794 4.796 1.799c1.799-.005 3.523-.651 4.795-1.798s1.989-2.701 1.994-4.323v-8.947S0 18.298 0 25.878zm6.789 1.603c-.352 0-.695-.094-.988-.27s-.52-.427-.655-.719c-.135-.293-.17-.615-.101-.926s.238-.597.487-.821c.249-.224.565-.377.91-.439s.702-.03 1.027.091c.325.121.603.327.798.59s.3.574.3.891c.001.211-.044.42-.133.615s-.22.373-.385.522c-.165.149-.362.268-.578.349s-.448.123-.682.123v-.006zM20.524 26.566h-1.317v1.36h-.686v-3.329h2.168v.556h-1.482v.86h1.317v.553zm3.297-.229q0 .492-.174.862t-.497.572-.742.201q-.414 0-.738-.199t-.503-.568-.181-.849v-.165q0-.492.177-.865t.501-.574.74-.2.74.2.501.574.177.863v.149zm-.695-.151q0-.524-.188-.796t-.535-.272q-.345 0-.533.269t-.19.788v.162q0 .51.187.791t.54.281q.345 0 .53-.271t.188-.79v-.162zm2.92.867q0-.194-.137-.298t-.494-.22-.565-.227q-.567-.306-.567-.825 0-.27.152-.481t.437-.33.639-.119q.357 0 .636.129t.433.365.154.535h-.686q0-.229-.144-.356t-.405-.127q-.252 0-.391.106t-.139.28q0 .162.163.272t.481.206q.585.176.853.437t.268.649q0 .432-.327.678t-.88.246q-.384 0-.7-.141t-.481-.385-.166-.567h.688q0 .551.659.551.245 0 .382-.099t.137-.278zm3.659-1.9h-1.02v2.774h-.686v-2.774h-1.006v-.556h2.712v.556zm2.394 1.33h-1.317v.892h1.546v.551h-2.232v-3.329h2.227v.556h-1.541v.793h1.317v.537zm1.863.224h-.547v1.219h-.686v-3.329h1.237q.59 0 .91.263t.32.743q0 .341-.148.568t-.447.362l.72 1.361v.032h-.736l-.624-1.219zm-.546-.555h.553q.258 0 .4-.131t.142-.362q0-.236-.134-.37t-.41-.135h-.551v.999zm4.155.601v1.173h-.686v-3.329h1.299q.375 0 .66.137t.438.39.153.575q0 .489-.335.772t-.927.282h-.601zm0-.555h.613q.272 0 .415-.128t.143-.366q0-.245-.144-.396t-.398-.155h-.629v1.045zm4.337.285h-1.317v.892h1.546v.551h-2.232v-3.329h2.227v.556h-1.541v.793h1.317v.537zm3.183-1.33h-1.02v2.774h-.686v-2.774h-1.006v-.556h2.712v.556zm2.394 1.33h-1.317v.892h1.546v.551h-2.232v-3.329h2.227v.556h-1.541v.793h1.317v.537zm1.864.224h-.547v1.219h-.686v-3.329h1.237q.59 0 .91.263t.32.743q0 .341-.148.568t-.447.362l.72 1.361v.032h-.736l-.624-1.219zm-.547-.555h.553q.258 0 .4-.131t.142-.362q0-.236-.134-.37t-.41-.135h-.551v.999zm4.029.901q0-.194-.137-.298t-.494-.22-.565-.227q-.567-.306-.567-.825 0-.27.152-.481t.437-.33.639-.119q.357 0 .636.129t.433.365.154.535h-.686q0-.229-.144-.356t-.405-.127q-.251 0-.391.106t-.139.28q0 .162.163.272t.481.206q.585.176.853.437t.268.649q0 .432-.327.678t-.88.246q-.384 0-.7-.141t-.481-.385-.166-.567h.688q0 .551.658.551.245 0 .382-.099t.137-.278z"/></symbol><symbol id="icon-group-3" viewBox="0 0 34 32"><path fill="#8e8f99" style="fill:var(--color3, #8e8f99)" d="M5.315 31.394c.013 0 .025.003.036.007s.022.011.03.019l.172.162a1.413 1.413 0 0 1-.485.307 1.897 1.897 0 0 1-.687.11 1.853 1.853 0 0 1-.646-.103 1.414 1.414 0 0 1-.487-.291 1.3 1.3 0 0 1-.315-.449 1.49 1.49 0 0 1-.11-.576 1.338 1.338 0 0 1 .453-1.027c.147-.127.323-.226.517-.293a2.07 2.07 0 0 1 .666-.103c.211-.004.422.028.618.094.171.063.327.151.463.259l-.144.173a.125.125 0 0 1-.037.031.098.098 0 0 1-.058.013.153.153 0 0 1-.063-.018l-.078-.046-.108-.059a1.198 1.198 0 0 0-.34-.103 1.463 1.463 0 0 0-.256-.018 1.425 1.425 0 0 0-.478.077 1.109 1.109 0 0 0-.375.217 1 1 0 0 0-.243.346 1.13 1.13 0 0 0-.088.457c-.003.158.027.315.088.464a.994.994 0 0 0 .597.558c.141.05.292.075.444.074.088.001.176-.004.263-.015a1.068 1.068 0 0 0 .569-.237.13.13 0 0 1 .082-.029zM10.292 30.58c.003.195-.037.389-.116.573-.07.166-.181.318-.324.445s-.317.226-.509.292a2.124 2.124 0 0 1-1.31 0 1.514 1.514 0 0 1-.506-.293 1.291 1.291 0 0 1-.327-.449 1.473 1.473 0 0 1 0-1.147c.074-.167.185-.32.327-.451.144-.123.317-.218.506-.282.421-.14.889-.14 1.31 0 .191.066.365.166.508.293a1.316 1.316 0 0 1 .441 1.02zm-.453 0a1.196 1.196 0 0 0-.082-.46.941.941 0 0 0-.231-.344 1.012 1.012 0 0 0-.364-.217 1.533 1.533 0 0 0-.952 0 1.04 1.04 0 0 0-.364.217.926.926 0 0 0-.233.344c-.11.3-.11.621 0 .92a.939.939 0 0 0 .233.344c.101.094.225.168.364.215.307.098.645.098.952 0 .139-.048.263-.121.364-.215a.967.967 0 0 0 .231-.344c.058-.148.085-.304.082-.46zM13.687 31.062l.045.103c.017-.037.032-.07.05-.103a.833.833 0 0 1 .056-.101l1.101-1.71c.022-.029.041-.048.063-.053a.273.273 0 0 1 .09-.009h.325v2.781h-.386v-2.131a.769.769 0 0 1 0-.096l-1.107 1.734c-.014.026-.037.048-.065.063s-.061.023-.095.023h-.062c-.034 0-.066-.008-.095-.023s-.051-.037-.065-.064l-1.14-1.745V31.963h-.373v-2.776h.325a.336.336 0 0 1 .09.009c.027.011.048.03.06.053l1.125 1.712a.61.61 0 0 1 .056.099zM17.83 30.924v1.042h-.431v-2.777h.961c.181-.003.362.018.537.061.139.034.269.093.379.173.096.075.17.169.215.272a.814.814 0 0 1 .073.355.774.774 0 0 1-.313.633c-.111.084-.24.146-.381.184a1.847 1.847 0 0 1-.519.064l-.521-.007zm0-.298h.521c.113.001.226-.013.334-.042a.727.727 0 0 0 .241-.12.532.532 0 0 0 .198-.418c.005-.077-.01-.154-.043-.226s-.085-.137-.151-.19a.935.935 0 0 0-.579-.149h-.521v1.145zM23.621 31.97h-.34a.164.164 0 0 1-.095-.026.171.171 0 0 1-.056-.064l-.293-.672h-1.471l-.304.672a.162.162 0 0 1-.151.091h-.34l1.293-2.782h.448l1.31 2.782zm-2.133-1.033h1.215l-.513-1.132a1.783 1.783 0 0 1-.097-.261l-.05.145a1.317 1.317 0 0 1-.047.118l-.509 1.13zM25.483 29.201a.18.18 0 0 1 .065.05l1.885 2.097v-2.16h.386v2.781h-.215a.2.2 0 0 1-.088-.017.224.224 0 0 1-.069-.052l-1.883-2.095a.769.769 0 0 1 0 .096v2.068h-.386v-2.781h.228a.206.206 0 0 1 .078.013zM30.993 30.863v1.104h-.431v-1.104l-1.191-1.675h.386a.158.158 0 0 1 .093.024.248.248 0 0 1 .058.063l.745 1.081c.03.046.056.088.078.129s.039.079.054.118l.056-.12a.947.947 0 0 1 .073-.127l.735-1.088a.26.26 0 0 1 .056-.059.15.15 0 0 1 .093-.028h.39l-1.194 1.683zM13.474 24.521c.187.02.377.037.569.052 2.907-1.111 5.366-2.93 7.07-5.228s2.577-4.975 2.511-7.696L20.42 8.912c.651 2.896.347 5.89-.88 8.647s-3.327 5.168-6.066 6.962z"/><path fill="#8e8f99" style="fill:var(--color3, #8e8f99)" d="m12.33 24.393.086.015c2.927-1.789 5.158-4.286 6.406-7.17s1.454-6.021.592-9.006l-4.563-3.899c1.846 3.205 2.589 6.791 2.142 10.342s-2.063 6.921-4.663 9.718zM27.805 14.862c-.775 2.989-2.658 5.685-5.369 7.687a17.175 17.175 0 0 1-2.551 1.565c2.207-.554 4.236-1.534 5.93-2.865s3.008-2.975 3.84-4.808l-1.851-1.579z"/><path fill="#8e8f99" style="fill:var(--color3, #8e8f99)" d="m27.079 14.422-2.635-2.251c-.05 2.567-.904 5.075-2.473 7.264s-3.795 3.98-6.448 5.185h.013c.591 0 1.182-.03 1.769-.09 2.479-.865 4.669-2.24 6.375-4.004s2.874-3.861 3.4-6.104zM12.711 2.689 9.568 0c-2.81.928-5.227 2.559-6.934 4.679S.009 9.311 0 11.885c.011 2.844 1.131 5.604 3.184 7.843s4.921 3.829 8.151 4.518c2.883-3.001 4.571-6.709 4.818-10.586s-.958-7.72-3.442-10.971zM34.341 14.008c-.011-3.374-1.585-6.608-4.378-8.994s-6.577-3.731-10.526-3.74a16.975 16.975 0 0 0-5.337.849l19.245 16.443a10.98 10.98 0 0 0 .995-4.558z"/></symbol><symbol id="icon-group-4" viewBox="0 0 25 32"><path fill="#8e8f99" style="fill:var(--color3, #8e8f99)" d="M10.448 1.806h.084c.156 0 .324.016.49.03.734.052 1.463.162 2.179.329V.403a12.97 12.97 0 0 0-2.25-.358 18.11 18.11 0 0 0-.909-.044h-.263c-1.523.006-3.04.201-4.515.582a18.3 18.3 0 0 0-4.79 1.948v17.475a19.484 19.484 0 0 1 4.566-1.779 19.948 19.948 0 0 1 3.833-.588h.051c.216-.011.433-.017.655-.019v-1.79a21.155 21.155 0 0 0-4.982.662 24.32 24.32 0 0 0-1.731.513l-.623.211V3.591l.266-.128a17.409 17.409 0 0 1 6.472-1.651.523.523 0 0 1 .056 0c.248-.013.497-.019.741-.019h.28c.129.003.258.006.388.014zm3.185 1.801c.391.03.795.044 1.205.044a19.352 19.352 0 0 0 4.747-.609c1.59-.4 3.123-.998 4.564-1.781v17.164a18.313 18.313 0 0 1-4.792 1.948 18.486 18.486 0 0 1-4.515.581 13.778 13.778 0 0 1-3.425-.404V3.275c.265.061.537.117.814.164.455.077.934.133 1.401.167zm8.735.133-.623.21c-.573.192-1.15.365-1.731.518a21.098 21.098 0 0 1-5.173.663c-.406 0-.78-.011-1.141-.034l-.497-.033v14.017l.427.038c.395.034.803.052 1.214.052a16.573 16.573 0 0 0 4.074-.527 17.08 17.08 0 0 0 3.184-1.144l.266-.128V3.742zM1.684 25.977a.903.903 0 0 0-.693-.28 1.034 1.034 0 0 0-.4.075.894.894 0 0 0-.512.518 1.023 1.023 0 0 0-.072.387v2.335c-.006.165.026.328.092.479.055.12.135.226.234.313a.815.815 0 0 0 .321.166c.114.032.231.048.349.049a.972.972 0 0 0 .892-.61.951.951 0 0 0 .075-.372v-.261h-.61v.208a.528.528 0 0 1-.036.208.359.359 0 0 1-.089.131.365.365 0 0 1-.128.067.425.425 0 0 1-.128.022.314.314 0 0 1-.286-.125.556.556 0 0 1-.081-.313v-2.177a.738.738 0 0 1 .075-.349.306.306 0 0 1 .298-.14.33.33 0 0 1 .272.131c.068.09.104.2.101.313v.202h.604v-.238a1.102 1.102 0 0 0-.075-.409.962.962 0 0 0-.204-.329zM5.31 25.95a1.051 1.051 0 0 0-1.38 0 .961.961 0 0 0-.237.327 1.083 1.083 0 0 0-.089.452v2.239a1.08 1.08 0 0 0 .089.459c.055.12.136.227.237.313a.94.94 0 0 0 .322.197c.117.043.24.065.364.066s.248-.022.364-.066c.121-.044.233-.111.33-.197a.948.948 0 0 0 .23-.313c.063-.144.093-.301.089-.459v-2.239a1.08 1.08 0 0 0-.089-.452 1.015 1.015 0 0 0-.23-.327zm-.285 3.019a.405.405 0 0 1-.121.324.443.443 0 0 1-.574 0 .397.397 0 0 1-.121-.324V26.73a.405.405 0 0 1 .121-.324.445.445 0 0 1 .574 0 .397.397 0 0 1 .121.324v2.239zM10.072 29.969V25.73h-.587l-.771 2.244h-.011l-.777-2.244h-.581v4.239h.606V27.39h.011l.593 1.823h.302l.598-1.823h.011v2.579h.606zM13.513 26.027a.84.84 0 0 0-.343-.232 1.363 1.363 0 0 0-.439-.066h-.9v4.239h.604v-1.656h.311c.188.009.376-.031.545-.116a.882.882 0 0 0 .332-.324 1.02 1.02 0 0 0 .139-.369c.024-.16.035-.321.033-.482a2.421 2.421 0 0 0-.059-.606.898.898 0 0 0-.223-.39zm-.312 1.293a.547.547 0 0 1-.056.221.346.346 0 0 1-.156.149.621.621 0 0 1-.285.053h-.275v-1.441h.311a.578.578 0 0 1 .272.053.352.352 0 0 1 .142.156.62.62 0 0 1 .053.236v.282c0 .099.006.2 0 .291h-.006zM16.374 25.73h-.495l-.934 4.239h.604l.177-.911h.824l.177.911h.604l-.957-4.239zm-.557 2.751.297-1.537h.011l.296 1.537h-.604zM20.277 28.284h-.011l-.912-2.554h-.581v4.239h.604V27.42h.012l.923 2.549h.568V25.73h-.604v2.554zM23.968 25.73l-.486 1.685h-.012l-.486-1.685h-.64l.83 2.448v1.792h.604v-1.792l.83-2.448h-.64zM0 31.166h.291v.817h.198v-.817h.29v-.167H.001v.167zM2.447 30.999l-.381.984h.21l.081-.224h.392l.084.224h.215l-.391-.984h-.21zm-.031.595.134-.365.134.365h-.268zM4.867 31.62h.227v.127a.382.382 0 0 1-.234.083.244.244 0 0 1-.209-.093.411.411 0 0 1-.073-.257c0-.219.095-.329.283-.329a.206.206 0 0 1 .222.157l.195-.038c-.042-.192-.181-.29-.417-.29a.495.495 0 0 0-.344.127.494.494 0 0 0-.141.379.532.532 0 0 0 .126.369.477.477 0 0 0 .374.144.59.59 0 0 0 .417-.157v-.388h-.427v.166zM7.337 30.999h-.199v.984h.69v-.167h-.49v-.817zM9.227 30.999h.199v.984h-.199v-.984zM11.469 31.656l-.403-.657h-.193v.984h.185v-.643l.395.643h.198v-.984h-.182v.657zM13.315 31.55h.49v-.167h-.49v-.216h.528V31h-.727v.984h.747v-.167h-.548v-.266zM17.792 31.387h-.388v-.388h-.198v.984h.198v-.43h.388v.43h.198v-.984h-.198v.388zM19.65 31.55h.492v-.167h-.492v-.216h.529V31h-.727v.984h.746v-.167h-.548v-.266zM22.169 31.55c.171-.027.258-.117.258-.274a.236.236 0 0 0-.096-.219.553.553 0 0 0-.288-.058h-.417v.984h.198v-.412h.039a.261.261 0 0 1 .123.022.21.21 0 0 1 .07.072l.215.313h.237l-.12-.192a.685.685 0 0 0-.218-.236zm-.2-.136h-.146v-.247h.156a.507.507 0 0 1 .201.023c.014.013.026.029.033.046a.133.133 0 0 1-.005.111.128.128 0 0 1-.037.043.547.547 0 0 1-.201.023zM24.068 31.55h.49v-.167h-.49v-.216h.529V31h-.729v.984h.747v-.167h-.548v-.266z"/></symbol><symbol id="icon-group-5" viewBox="0 0 28 32"><path fill="#8e8f99" style="fill:var(--color3, #8e8f99)" d="m4.088 0 4.775 4.549-8.862-.005v22.069h23.165v-8.438l4.769 4.544V.001H4.089zm18.867 4.743V17.64L9.417 4.743h13.538zm-4.203 18.642H3.666V8.542h1.066V22.38h14.02v1.005zm-7.522 7.084-.053-.068a1.266 1.266 0 0 1-.145-.238q-.036-.081-.047-.166-.005-.037-.005-.074c0-.126.026-.235.078-.326s.126-.161.221-.21q.143-.075.334-.075a.64.64 0 0 1 .318.075.518.518 0 0 1 .279.461c0 .076-.014.146-.042.21s-.066.121-.115.173a1.188 1.188 0 0 1-.17.148l-.168.122.48.566a.966.966 0 0 0 .105-.452h.346q0 .176-.035.334a1.039 1.039 0 0 1-.177.4l.355.419h-.464l-.141-.166a.952.952 0 0 1-.248.136 1.112 1.112 0 0 1-.376.063c-.161 0-.3-.029-.418-.088s-.208-.14-.273-.243q-.018-.029-.032-.059-.063-.133-.063-.295c0-.099.021-.185.062-.259a.8.8 0 0 1 .168-.21c.066-.059.14-.119.224-.178zm.198.243-.05.037a.61.61 0 0 0-.131.138q-.042.065-.055.12a.411.411 0 0 0 .032.289.344.344 0 0 0 .135.138c.06.033.133.05.218.05a.622.622 0 0 0 .391-.138l-.539-.634zm.096-.442.148-.1a.552.552 0 0 0 .15-.136q.045-.068.045-.17a.241.241 0 0 0-.255-.233.243.243 0 0 0-.231.143.338.338 0 0 0-.028.141c0 .05.013.102.038.155q.038.078.105.165l.028.035zm4.237.71h-.416a.77.77 0 0 1-.076.268.383.383 0 0 1-.168.165.625.625 0 0 1-.288.057c-.098 0-.181-.02-.251-.058s-.127-.094-.173-.165q-.066-.107-.1-.255a1.622 1.622 0 0 1-.032-.333v-.205c0-.129.012-.243.035-.343.024-.101.06-.186.108-.254s.107-.121.178-.156a.557.557 0 0 1 .249-.053c.116 0 .211.02.283.06a.378.378 0 0 1 .163.17.762.762 0 0 1 .073.268h.416a1.056 1.056 0 0 0-.136-.431q-.041-.07-.094-.128-.09-.099-.216-.166a1.028 1.028 0 0 0-.489-.107c-.152 0-.289.027-.411.08a.853.853 0 0 0-.311.231c-.087.1-.153.22-.2.361a1.546 1.546 0 0 0-.068.472v.201c0 .174.022.332.067.472.045.141.111.261.196.361a.887.887 0 0 0 .308.23q.18.08.404.08c.195 0 .361-.035.497-.107s.242-.168.318-.291a.962.962 0 0 0 .133-.424zm2.311-.356v-.133c0-.183-.024-.347-.073-.491a1.066 1.066 0 0 0-.205-.371.885.885 0 0 0-.318-.235 1.006 1.006 0 0 0-.409-.082.983.983 0 0 0-.407.082.88.88 0 0 0-.318.235 1.068 1.068 0 0 0-.206.371 1.522 1.522 0 0 0-.073.491v.133c0 .183.024.347.073.492.05.145.12.269.21.371s.196.18.318.235c.123.053.259.08.408.08q.225 0 .409-.08a.881.881 0 0 0 .316-.235c.089-.102.157-.226.205-.371s.072-.309.072-.492zm-11.398-.121-.562-1.156h-.464l.815 1.53v.892h.421v-.892l.815-1.53h-.462l-.562 1.156zm2.073-1.156h.1l.915 2.422h-.439l-.196-.567h-.938l-.196.567h-.437l.912-2.422h.279zm-.444 1.523h.709l-.355-1.027-.354 1.027zm9.351-.382v.136q0 .203-.04.359a.792.792 0 0 1-.113.265.493.493 0 0 1-.431.214.556.556 0 0 1-.246-.053.527.527 0 0 1-.186-.161.777.777 0 0 1-.116-.265q-.04-.156-.04-.359v-.136c0-.135.013-.255.04-.358a.784.784 0 0 1 .115-.261q.065-.09.152-.142l.032-.017c.072-.037.154-.055.246-.055s.175.018.248.055q.027.013.052.029.076.05.133.13c.051.07.089.157.115.261.027.103.04.222.04.358z"/></symbol><symbol id="icon-group" viewBox="0 0 68 32"><path fill="#8e8f99" style="fill:var(--color3, #8e8f99)" d="M34.567 15.037a2.15 2.15 0 0 1-.441-1.449v-2.1c0-.644.146-1.133.438-1.468s.794-.501 1.506-.5c.669 0 1.143.142 1.424.427.306.364.455.808.421 1.256v.494h-1.196v-.5a2.505 2.505 0 0 0-.035-.489.472.472 0 0 0-.171-.291.686.686 0 0 0-.433-.113.73.73 0 0 0-.456.12.559.559 0 0 0-.198.32c-.034.171-.05.345-.047.519v2.549c-.019.246.034.492.154.716.059.076.142.136.239.173s.203.052.309.04a.654.654 0 0 0 .423-.115.512.512 0 0 0 .178-.31c.028-.169.04-.34.037-.511v-.517h1.196v.472c.034.467-.112.931-.414 1.32-.275.312-.743.468-1.431.468s-1.208-.167-1.503-.513zM39.546 15.059c-.302-.327-.453-.803-.453-1.434v-2.209c0-.624.151-1.096.453-1.417s.807-.48 1.515-.479c.703 0 1.206.159 1.508.479.302.321.456.793.456 1.417v2.209c0 .624-.154 1.103-.461 1.432s-.807.494-1.503.494-1.211-.167-1.515-.492zm2.073-.53c.108-.205.158-.429.144-.654V11.17c.014-.22-.035-.44-.141-.641-.061-.077-.145-.138-.244-.176s-.208-.051-.315-.037c-.107-.013-.217 0-.316.038s-.184.099-.246.176c-.109.2-.158.42-.144.641v2.718c-.015.225.034.449.144.654.07.069.156.124.252.162s.201.057.307.057.211-.02.307-.057a.743.743 0 0 0 .252-.162v-.013zM44.464 9.585h1.288l.968 4.076.99-4.076h1.253l.126 5.884h-.926l-.099-4.089-.956 4.089h-.743l-.99-4.104-.092 4.104h-.936l.116-5.884zM50.533 9.585h2.006c1.156 0 1.733.557 1.733 1.671 0 1.067-.608 1.6-1.825 1.598h-.683v2.615h-1.238l.007-5.884zm1.713 2.515c.122.013.247.004.364-.028s.226-.086.317-.157a.95.95 0 0 0 .178-.664 1.856 1.856 0 0 0-.059-.534c-.018-.058-.049-.113-.091-.161s-.096-.088-.156-.118a1.277 1.277 0 0 0-.552-.094h-.48v1.758h.48zM56.057 9.585h1.33l1.364 5.884h-1.154l-.27-1.357h-1.186l-.277 1.357h-1.171l1.364-5.884zm1.137 3.846-.463-2.47-.463 2.47h.926zM59.853 9.585h.867l1.659 3.357V9.585h1.028v5.884h-.825l-1.669-3.504v3.504h-1.062l.002-5.884zM65.813 13.226l-1.379-3.632h1.161l.842 2.333.79-2.333h1.136l-1.362 3.632v2.243h-1.189v-2.243zM36.478 18.041v.308h-1.01v2.391h-.423v-2.391H34.03v-.308h2.449zM39.645 20.74h-.327a.142.142 0 0 1-.092-.026.134.134 0 0 1-.054-.062l-.292-.641h-1.402l-.292.641a.173.173 0 0 1-.044.073.155.155 0 0 1-.092.026h-.327l1.238-2.699h.431l1.253 2.688zm-2.05-1.002h1.169l-.495-1.098a2.143 2.143 0 0 1-.092-.254l-.047.143-.044.113-.49 1.096zM41.78 20.475c.078.003.155.003.233 0 .067-.006.133-.017.198-.032.061-.013.12-.029.178-.049.054-.019.109-.043.166-.066v-.607h-.495c-.012.001-.025-.001-.036-.005a.094.094 0 0 1-.05-.039.063.063 0 0 1-.006-.027v-.207h.961v1.034a1.87 1.87 0 0 1-.523.22 2.286 2.286 0 0 1-.31.056 3.64 3.64 0 0 1-.362.017 1.902 1.902 0 0 1-.624-.101 1.512 1.512 0 0 1-.495-.282 1.3 1.3 0 0 1-.319-.427 1.347 1.347 0 0 1-.114-.56 1.398 1.398 0 0 1 .111-.564c.071-.16.18-.305.319-.427.141-.121.31-.217.495-.28.212-.069.437-.103.664-.101.115 0 .23.008.344.023.101.014.199.037.295.068.087.028.17.064.248.107.076.042.148.089.215.141l-.119.167c-.009.015-.023.028-.04.037s-.036.014-.056.014a.17.17 0 0 1-.077-.021 1.33 1.33 0 0 1-.121-.064 1.071 1.071 0 0 0-.166-.073 1.592 1.592 0 0 0-.228-.06 1.944 1.944 0 0 0-.314-.023 1.454 1.454 0 0 0-.478.075 1.052 1.052 0 0 0-.364.214.931.931 0 0 0-.23.335 1.258 1.258 0 0 0 0 .9 1.053 1.053 0 0 0 .61.554c.157.047.324.065.49.053zM45.727 20.432h1.352v.308h-1.766v-2.699h.423l-.01 2.391zM48.485 20.74h-.423v-2.699h.423v2.699zM50.06 18.054a.195.195 0 0 1 .064.049l1.81 2.034a.769.769 0 0 1 0-.096V18.03h.369v2.709h-.213a.205.205 0 0 1-.092-.015.264.264 0 0 1-.067-.051l-1.807-2.032v2.098h-.354V18.04h.22c.024 0 .048.004.069.013zM55.421 18.041v.297H53.92v.891h1.216v.286H53.92v.921h1.501v.297h-1.936v-2.692h1.936zM11.051 1.376l18.801 4.607v16.142l-18.801-4.604V1.377zM9.845 0v18.305l21.211 5.198V5.201L9.845 0z"/><path fill="#8e8f99" style="fill:var(--color3, #8e8f99)" d="M21.213 32 0 26.797V8.494l21.213 5.201V32z"/><path fill="#8e8f99" style="fill:var(--color3, #8e8f99)" d="m10.197 1.169 18.556 4.549-7.891 6.811L2.303 7.978l7.894-6.809zM9.845 0 0 8.495l21.213 5.2L31.056 5.2 9.845 0zM22.407 30.97l8.649-7.465-8.649-2.122v9.587z"/></symbol><symbol id="icon-in" viewBox="0 0 32 32"><path fill="#4d5ae5" style="fill:var(--color1, #4d5ae5)" d="M32 16c0 4.418-1.791 8.418-4.686 11.314S20.419 32 16 32s-8.418-1.791-11.314-4.686C1.79 24.419 0 20.419 0 16S1.791 7.582 4.686 4.686C7.581 1.79 11.581 0 16 0s8.418 1.791 11.314 4.686A15.946 15.946 0 0 1 32 16z"/><path  d="M22.397 22.4v-.001h.003v-4.694c0-2.297-.494-4.066-3.179-4.066-1.291 0-2.157.708-2.51 1.38h-.037v-1.165h-2.546V22.4h2.651v-4.231c0-1.114.211-2.191 1.591-2.191 1.36 0 1.38 1.271 1.38 2.263v4.161h2.648zM9.811 13.854h2.654V22.4H9.811v-8.546zM11.137 9.6c-.849 0-1.537.689-1.537 1.537s.689 1.551 1.537 1.551c.849 0 1.537-.703 1.537-1.551S11.985 9.6 11.137 9.6z"/></symbol><symbol id="icon-instagram" viewBox="0 0 32 32"><path fill="#4d5ae5" style="fill:var(--color1, #4d5ae5)" d="M32 16c0 4.418-1.791 8.418-4.686 11.314S20.418 32 16 32s-8.418-1.791-11.314-4.686C1.791 24.419 0 20.419 0 16S1.791 7.582 4.686 4.686C7.581 1.79 11.581 0 16 0s8.418 1.791 11.314 4.686A15.95 15.95 0 0 1 32 16z"/><path d="M22.387 13.363c-.03-.68-.14-1.148-.298-1.553a3.136 3.136 0 0 0-.74-1.135 3.153 3.153 0 0 0-1.133-.738c-.407-.158-.873-.268-1.553-.298-.685-.032-.903-.04-2.641-.04s-1.955.008-2.638.038c-.68.03-1.148.14-1.553.298a3.11 3.11 0 0 0-1.135.74c-.325.32-.578.708-.738 1.133-.158.408-.268.873-.298 1.553-.032.685-.04.903-.04 2.641s.008 1.955.038 2.638c.03.68.14 1.148.298 1.553.162.43.415.815.74 1.135.32.325.708.578 1.133.738.408.158.873.267 1.553.298.683.03.9.038 2.638.038s1.955-.007 2.638-.038c.68-.03 1.148-.14 1.553-.298a3.278 3.278 0 0 0 1.873-1.873c.157-.408.268-.873.298-1.553.03-.683.038-.9.038-2.638s-.003-1.955-.033-2.638zm-1.152 5.226c-.028.625-.133.963-.22 1.188-.215.558-.658 1-1.215 1.215-.225.087-.565.192-1.188.22-.675.03-.878.037-2.585.037s-1.913-.007-2.586-.037c-.625-.027-.963-.132-1.188-.22a1.966 1.966 0 0 1-.735-.478 2.01 2.01 0 0 1-.478-.735c-.088-.225-.193-.565-.22-1.188-.03-.675-.037-.878-.037-2.586s.007-1.913.037-2.585c.027-.625.132-.963.22-1.188.103-.278.265-.53.48-.735a1.99 1.99 0 0 1 .735-.478c.225-.088.565-.193 1.188-.22.675-.03.878-.037 2.586-.037 1.71 0 1.913.008 2.586.037.625.028.963.133 1.188.22.278.102.53.265.735.478.213.208.375.458.478.735.088.225.192.565.22 1.188.03.675.037.878.037 2.585s-.008 1.908-.037 2.583z"/><path  d="M16.024 12.713a3.29 3.29 0 0 0 0 6.576 3.29 3.29 0 0 0 0-6.576zm0 5.421a2.133 2.133 0 1 1 0-4.266 2.133 2.133 0 0 1 0 4.266zM20.21 12.583a.768.768 0 1 1-1.536 0 .768.768 0 0 1 1.536 0z"/></symbol><symbol id="icon-twiter" viewBox="0 0 32 32"><path fill="#4d5ae5" style="fill:var(--color1, #4d5ae5)" d="M32 16c0 4.418-1.791 8.418-4.686 11.314S20.418 32 16 32s-8.418-1.791-11.314-4.686C1.791 24.419 0 20.419 0 16S1.791 7.582 4.686 4.686C7.581 1.79 11.581 0 16 0s8.418 1.791 11.314 4.686A15.95 15.95 0 0 1 32 16z"/><path  d="M22.4 12.031a5.455 5.455 0 0 1-1.512.414 2.608 2.608 0 0 0 1.154-1.45 5.245 5.245 0 0 1-1.664.635 2.623 2.623 0 0 0-4.539 1.795c0 .208.018.408.061.598a7.426 7.426 0 0 1-5.409-2.745 2.628 2.628 0 0 0 .807 3.507 2.591 2.591 0 0 1-1.186-.323v.029c0 1.275.91 2.334 2.102 2.578a2.636 2.636 0 0 1-.688.086c-.168 0-.338-.01-.497-.045a2.65 2.65 0 0 0 2.452 1.828 5.275 5.275 0 0 1-3.882 1.083 7.384 7.384 0 0 0 4.026 1.178c4.829 0 7.469-4 7.469-7.467a6.24 6.24 0 0 0-.01-.339c.521-.37.958-.831 1.315-1.362z"/></symbol></defs></svg>