<svg width="40.000000" height="40.000000" viewBox="0 0 40 40" fill="none" xmlns="http://www.w3.org/2000/svg" xmlns:xlink="http://www.w3.org/1999/xlink">
	<desc>
			Created with Pixso.
	</desc>
	<defs>
		<clipPath id="clip2_1608">
			<rect id="twitter 1" width="16.000000" height="16.000000" transform="translate(12.000000 12.000000)" fill="white" fill-opacity="0"/>
		</clipPath>
	</defs>
	<rect id="Ellipse" width="40.000000" height="40.000000" fill="#FFFFFF" fill-opacity="0"/>
	<path id="Ellipse" d="M40 20C40 25.5228 37.7614 30.5228 34.1422 34.1421C30.5228 37.7615 25.5228 40 20 40C14.4772 40 9.47717 37.7615 5.85785 34.1421C2.23859 30.5228 0 25.5228 0 20C0 14.4772 2.23859 9.47717 5.85785 5.85791C9.47717 2.23853 14.4772 0 20 0C25.5228 0 30.5228 2.23853 34.1422 5.85791C37.7614 9.47717 40 14.4772 40 20Z" fill="#4D5AE5" fill-opacity="1.000000" fill-rule="nonzero"/>
	<rect id="twitter 1" width="16.000000" height="16.000000" transform="translate(12.000000 12.000000)" fill="#FFFFFF" fill-opacity="0"/>
	<g clip-path="url(#clip2_1608)">
		<path id="Vector" d="M28 15.0389C27.405 15.3 26.771 15.473 26.11 15.557C26.79 15.151 27.309 14.5129 27.553 13.744C26.919 14.1219 26.219 14.389 25.473 14.538C24.871 13.897 24.013 13.5 23.077 13.5C21.261 13.5 19.799 14.974 19.799 16.781C19.799 17.041 19.821 17.291 19.875 17.5291C17.148 17.396 14.735 16.089 13.114 14.098C12.831 14.589 12.665 15.151 12.665 15.756C12.665 16.892 13.25 17.899 14.122 18.4821C13.595 18.472 13.078 18.319 12.64 18.078C12.64 18.088 12.64 18.101 12.64 18.114C12.64 19.708 13.777 21.032 15.268 21.337C15.001 21.41 14.71 21.4449 14.408 21.4449C14.198 21.4449 13.986 21.433 13.787 21.389C14.212 22.688 15.418 23.6429 16.852 23.674C15.736 24.547 14.319 25.073 12.785 25.073C12.516 25.073 12.258 25.061 12 25.028C13.453 25.965 15.175 26.5 17.032 26.5C23.068 26.5 26.368 21.5 26.368 17.166C26.368 17.021 26.363 16.881 26.356 16.7419C27.007 16.28 27.554 15.703 28 15.0389Z" fill="#F4F4FD" fill-opacity="1.000000" fill-rule="nonzero"/>
	</g>
</svg>
